<svg xmlns="http://www.w3.org/2000/svg" xmlns:xlink="http://www.w3.org/1999/xlink" viewBox="0 0 573.74 140.57"><defs><style>.cls-1,.cls-167,.cls-181,.cls-198,.cls-91{fill:none;}.cls-2{clip-path:url(#clip-path);}.cls-3{fill:#2d2d2d;}.cls-4{fill:#0e0e0e;}.cls-5{fill:#1b1b1b;}.cls-6{fill:#313131;}.cls-7{fill:#d2d2d2;}.cls-8{fill:#fefefe;}.cls-9{fill:#676767;}.cls-10{fill:#6d6d6d;}.cls-11{fill:#fdfdfd;}.cls-12{fill:#666;}.cls-13{fill:#636363;}.cls-14{fill:#3a3a3a;}.cls-15{fill:#9d9d9d;}.cls-16{fill:#0b0b0b;}.cls-17{fill:#c2c2c2;}.cls-18{fill:#0a0a0a;}.cls-19{fill:#adadad;}.cls-20{fill:#9c9c9c;}.cls-21{fill:#545454;}.cls-22{fill:#727272;}.cls-23{fill:#717171;}.cls-24{fill:#868686;}.cls-25{fill:#525252;}.cls-26{fill:#323232;}.cls-27{fill:#7c7c7c;}.cls-28{fill:#777;}.cls-29{fill:#9b9b9b;}.cls-30{fill:#020202;}.cls-31{fill:#030303;}.cls-32{fill:#565656;}.cls-33{fill:#f4f4f4;}.cls-34{fill:#494949;}.cls-35{fill:#c8c8c8;}.cls-36{fill:#bfbfbf;}.cls-37{fill:#eaeaea;}.cls-38{fill:#303030;}.cls-39{fill:#060606;}.cls-40{fill:#080808;}.cls-41{fill:#bcbcbc;}.cls-42{fill:#d0d0d0;}.cls-43{fill:#e2e2e2;}.cls-44{fill:#e5e5e5;}.cls-45{fill:#919191;}.cls-46{fill:#2f2f2f;}.cls-47{fill:#a3a3a3;}.cls-48{fill:#8b8b8b;}.cls-49{fill:#6b6b6b;}.cls-50{fill:#a2a2a2;}.cls-51{fill:#b8b8b8;}.cls-52{fill:#747474;}.cls-53{fill:#4a4a4a;}.cls-54{fill:#212121;}.cls-55{fill:#202020;}.cls-56{fill:#111;}.cls-57{fill:#c6c6c6;}.cls-58{fill:#848484;}.cls-59{fill:#e4e4e4;}.cls-60{fill:#dadada;}.cls-61{fill:#aeaeae;}.cls-62{fill:#262626;}.cls-63{fill:#0c0c0c;}.cls-64{fill:#272727;}.cls-65{fill:#e1e1e1;}.cls-66{fill:#505050;}.cls-67{fill:#222;}.cls-68{fill:#353535;}.cls-69{fill:#ddd;}.cls-70{fill:#4c4c4c;}.cls-71{fill:#f5f5f5;}.cls-72{fill:#b7b7b7;}.cls-73{fill:#484848;}.cls-74{fill:#a5a5a5;}.cls-75{fill:#969696;}.cls-76{fill:#555;}.cls-77{fill:#6c6c6c;}.cls-78{fill:#656565;}.cls-79{fill:#373737;}.cls-80{fill:#383838;}.cls-81{fill:#242424;}.cls-82{fill:#232323;}.cls-83{fill:#101010;}.cls-84{fill:#121212;}.cls-85{fill:#fcfcfc;}.cls-86{fill:#535353;}.cls-87{fill:#0d0d0d;}.cls-88{fill:#5a5a5a;}.cls-89{clip-path:url(#clip-path-2);}.cls-90{fill:#f2f2f2;}.cls-91{stroke:#44546a;}.cls-167,.cls-181,.cls-198,.cls-91{stroke-miterlimit:8;}.cls-198,.cls-91{stroke-width:0.96px;}.cls-107,.cls-175,.cls-182,.cls-184,.cls-92{font-size:13.92px;}.cls-92{fill:#7f7f7f;}.cls-107,.cls-169,.cls-175,.cls-199,.cls-92{font-family:Calibri-Bold, Calibri;}.cls-107,.cls-169,.cls-175,.cls-182,.cls-184,.cls-199,.cls-203,.cls-92{font-weight:700;}.cls-93{fill:#fff;}.cls-94{clip-path:url(#clip-path-3);}.cls-95{fill:#3a559f;}.cls-96{fill:#00c200;}.cls-97{clip-path:url(#clip-path-4);}.cls-98{fill:#00c500;}.cls-99{fill:#50abf1;}.cls-100{clip-path:url(#clip-path-5);}.cls-101{fill:#dc472e;}.cls-102{clip-path:url(#clip-path-6);}.cls-103{fill:#15ace5;}.cls-104{clip-path:url(#clip-path-7);}.cls-105{fill:#2dc100;}.cls-106{clip-path:url(#clip-path-8);}.cls-107,.cls-169,.cls-199,.cls-203{fill:#c00000;}.cls-108{letter-spacing:0.01em;}.cls-109{letter-spacing:0em;}.cls-110{letter-spacing:0em;}.cls-111{letter-spacing:0.01em;}.cls-112{letter-spacing:0em;}.cls-113{letter-spacing:0em;}.cls-114{letter-spacing:0em;}.cls-115{letter-spacing:0em;}.cls-116{clip-path:url(#clip-path-9);}.cls-117{fill:url(#linear-gradient);}.cls-118{clip-path:url(#clip-path-10);}.cls-119{fill:url(#linear-gradient-2);}.cls-120{clip-path:url(#clip-path-11);}.cls-121{fill:url(#linear-gradient-3);}.cls-122{clip-path:url(#clip-path-12);}.cls-123{fill:url(#linear-gradient-4);}.cls-124{clip-path:url(#clip-path-13);}.cls-125{fill:url(#linear-gradient-5);}.cls-126{clip-path:url(#clip-path-14);}.cls-127{fill:url(#linear-gradient-6);}.cls-128{clip-path:url(#clip-path-15);}.cls-129{fill:url(#linear-gradient-7);}.cls-130{clip-path:url(#clip-path-16);}.cls-131{fill:url(#linear-gradient-8);}.cls-132{clip-path:url(#clip-path-17);}.cls-133{fill:url(#linear-gradient-9);}.cls-134{clip-path:url(#clip-path-18);}.cls-135{fill:url(#linear-gradient-10);}.cls-136{clip-path:url(#clip-path-19);}.cls-137{fill:url(#linear-gradient-11);}.cls-138{clip-path:url(#clip-path-20);}.cls-139{fill:url(#linear-gradient-12);}.cls-140{clip-path:url(#clip-path-21);}.cls-141{fill:url(#linear-gradient-13);}.cls-142{clip-path:url(#clip-path-22);}.cls-143{fill:url(#linear-gradient-14);}.cls-144{clip-path:url(#clip-path-23);}.cls-145{fill:url(#linear-gradient-15);}.cls-146{clip-path:url(#clip-path-24);}.cls-147{fill:url(#linear-gradient-16);}.cls-148{clip-path:url(#clip-path-25);}.cls-149{fill:url(#linear-gradient-17);}.cls-150{clip-path:url(#clip-path-26);}.cls-151{fill:url(#linear-gradient-18);}.cls-152{fill:#903b1c;}.cls-152,.cls-168{fill-rule:evenodd;}.cls-153{clip-path:url(#clip-path-45);}.cls-154,.cls-203{font-size:16.08px;}.cls-154{font-family:Calibri-Italic, Calibri;}.cls-154,.cls-182,.cls-184,.cls-203{font-style:italic;}.cls-155{letter-spacing:0em;}.cls-156{letter-spacing:0em;}.cls-157{letter-spacing:-0.01em;}.cls-158{letter-spacing:0em;}.cls-159{letter-spacing:0.01em;}.cls-160{letter-spacing:-0.01em;}.cls-161{letter-spacing:0em;}.cls-162{letter-spacing:-0.01em;}.cls-163{letter-spacing:-0.01em;}.cls-164{letter-spacing:0em;}.cls-165{clip-path:url(#clip-path-46);}.cls-166{fill:#2e4e7d;}.cls-167{stroke:#000;stroke-width:1.92px;}.cls-169{font-size:19.92px;}.cls-170{letter-spacing:0em;}.cls-171{letter-spacing:0em;}.cls-172{letter-spacing:0em;}.cls-173{letter-spacing:0.01em;}.cls-174{letter-spacing:0em;}.cls-176{letter-spacing:-0.01em;}.cls-177{letter-spacing:0em;}.cls-178{letter-spacing:0.01em;}.cls-179{letter-spacing:0em;}.cls-180{letter-spacing:0.01em;}.cls-181{stroke:#595959;stroke-width:1.44px;stroke-dasharray:4.32 1.44;}.cls-182,.cls-184,.cls-203{font-family:Calibri-BoldItalic, Calibri;}.cls-183{fill:#e6dfd7;}.cls-184{letter-spacing:0em;}.cls-185{letter-spacing:0.01em;}.cls-186{letter-spacing:-0.01em;}.cls-187{letter-spacing:-0.01em;}.cls-188{letter-spacing:0em;}.cls-189{letter-spacing:-0.02em;}.cls-190{letter-spacing:-0.01em;}.cls-191{letter-spacing:-0.02em;}.cls-192{letter-spacing:-0.01em;}.cls-193{letter-spacing:0em;}.cls-194{letter-spacing:0em;}.cls-195{letter-spacing:0em;}.cls-196{letter-spacing:-0.01em;}.cls-197{letter-spacing:0em;}.cls-198{stroke:#903b1c;}.cls-199{font-size:18px;}.cls-200{letter-spacing:0em;}.cls-201{letter-spacing:0em;}.cls-202{letter-spacing:0em;}.cls-204{letter-spacing:0em;}.cls-205{letter-spacing:0em;}</style><clipPath id="clip-path" transform="translate(-192.31 -200.41)"><rect class="cls-1" x="268.08" y="200.4" width="234.96" height="113.76"/></clipPath><clipPath id="clip-path-2" transform="translate(-192.31 -200.41)"><rect class="cls-1" width="960" height="540"/></clipPath><clipPath id="clip-path-3" transform="translate(-192.31 -200.41)"><rect class="cls-1" x="386.64" y="235.44" width="27.12" height="27.12"/></clipPath><clipPath id="clip-path-4" transform="translate(-192.31 -200.41)"><rect class="cls-1" x="386.64" y="268.08" width="27.12" height="27.12"/></clipPath><clipPath id="clip-path-5" transform="translate(-192.31 -200.41)"><rect class="cls-1" x="453.36" y="268.08" width="27.12" height="27.12"/></clipPath><clipPath id="clip-path-6" transform="translate(-192.31 -200.41)"><rect class="cls-1" x="453.36" y="235.44" width="27.12" height="27.12"/></clipPath><clipPath id="clip-path-7" transform="translate(-192.31 -200.41)"><rect class="cls-1" x="420" y="268.08" width="27.12" height="27.12"/></clipPath><clipPath id="clip-path-8" transform="translate(-192.31 -200.41)"><rect class="cls-1" x="420" y="235.2" width="27.36" height="27.36"/></clipPath><clipPath id="clip-path-9" transform="translate(-192.31 -200.41)"><path class="cls-1" d="M342.48,266.28v9.6a.6.6,0,1,0,1.2,0v-9.6a.6.6,0,1,0-1.2,0"/></clipPath><linearGradient id="linear-gradient" x1="-341.88" y1="799.92" x2="-341.88" y2="817.92" gradientTransform="matrix(1, 0, 0, -1, 492.65, 879.59)" gradientUnits="userSpaceOnUse"><stop offset="0" stop-color="#262626"/><stop offset="0.48" stop-color="#7f7f7f"/><stop offset="1" stop-color="#a6a6a6"/></linearGradient><clipPath id="clip-path-10" transform="translate(-192.31 -200.41)"><path class="cls-1" d="M340.56,270.72v1a.47.47,0,0,0,.48.48.48.48,0,0,0,.48-.48v-1a.48.48,0,0,0-.48-.48.47.47,0,0,0-.48.48"/></clipPath><linearGradient id="linear-gradient-2" x1="-340.08" y1="799.92" x2="-340.08" y2="817.92" gradientTransform="matrix(1, 0, 0, -1, 488.81, 879.59)" xlink:href="#linear-gradient"/><clipPath id="clip-path-11" transform="translate(-192.31 -200.41)"><path class="cls-1" d="M338.64,270.48v1.2a.48.48,0,0,0,1,0v-1.2a.48.48,0,0,0-1,0"/></clipPath><linearGradient id="linear-gradient-3" x1="-338.16" y1="799.92" x2="-338.16" y2="817.92" gradientTransform="matrix(1, 0, 0, -1, 484.97, 879.59)" xlink:href="#linear-gradient"/><clipPath id="clip-path-12" transform="translate(-192.31 -200.41)"><path class="cls-1" d="M344.4,262.68v16.8a.6.6,0,0,0,1.2,0v-16.8a.6.6,0,0,0-1.2,0"/></clipPath><linearGradient id="linear-gradient-4" x1="-343.8" y1="799.92" x2="-343.8" y2="817.92" gradientTransform="matrix(1, 0, 0, -1, 496.49, 879.59)" xlink:href="#linear-gradient"/><clipPath id="clip-path-13" transform="translate(-192.31 -200.41)"><path class="cls-1" d="M346.56,265.2v12a.47.47,0,0,0,.48.48.48.48,0,0,0,.48-.48v-12a.48.48,0,0,0-.48-.48.47.47,0,0,0-.48.48"/></clipPath><linearGradient id="linear-gradient-5" x1="-346.08" y1="799.92" x2="-346.08" y2="817.92" gradientTransform="matrix(1, 0, 0, -1, 500.81, 879.59)" xlink:href="#linear-gradient"/><clipPath id="clip-path-14" transform="translate(-192.31 -200.41)"><path class="cls-1" d="M348.48,267.84v6.72a.48.48,0,0,0,.48.48.47.47,0,0,0,.48-.48v-6.72a.47.47,0,0,0-.48-.48.48.48,0,0,0-.48.48"/></clipPath><linearGradient id="linear-gradient-6" x1="-348" y1="799.92" x2="-348" y2="817.92" gradientTransform="matrix(1, 0, 0, -1, 504.65, 879.59)" xlink:href="#linear-gradient"/><clipPath id="clip-path-15" transform="translate(-192.31 -200.41)"><path class="cls-1" d="M350.4,269.52v3.36a.47.47,0,0,0,.48.48.48.48,0,0,0,.48-.48v-3.36a.49.49,0,0,0-.48-.48.48.48,0,0,0-.48.48"/></clipPath><linearGradient id="linear-gradient-7" x1="-349.92" y1="799.92" x2="-349.92" y2="817.92" gradientTransform="matrix(1, 0, 0, -1, 508.49, 879.59)" xlink:href="#linear-gradient"/><clipPath id="clip-path-16" transform="translate(-192.31 -200.41)"><path class="cls-1" d="M352.32,269.64v3.12a.6.6,0,0,0,1.2,0v-3.12a.6.6,0,0,0-1.2,0"/></clipPath><linearGradient id="linear-gradient-8" x1="-351.72" y1="799.92" x2="-351.72" y2="817.92" gradientTransform="matrix(1, 0, 0, -1, 512.33, 879.59)" xlink:href="#linear-gradient"/><clipPath id="clip-path-17" transform="translate(-192.31 -200.41)"><path class="cls-1" d="M354.24,268.92v4.56a.6.6,0,1,0,1.2,0v-4.56a.6.6,0,1,0-1.2,0"/></clipPath><linearGradient id="linear-gradient-9" x1="-353.64" y1="799.92" x2="-353.64" y2="817.92" gradientTransform="matrix(1, 0, 0, -1, 516.17, 879.59)" xlink:href="#linear-gradient"/><clipPath id="clip-path-18" transform="translate(-192.31 -200.41)"><path class="cls-1" d="M356.4,269.76v2.88a.48.48,0,0,0,.48.48.49.49,0,0,0,.48-.48v-2.88a.48.48,0,0,0-.48-.48.47.47,0,0,0-.48.48"/></clipPath><linearGradient id="linear-gradient-10" x1="-355.92" y1="799.92" x2="-355.92" y2="817.92" gradientTransform="matrix(1, 0, 0, -1, 520.49, 879.59)" xlink:href="#linear-gradient"/><clipPath id="clip-path-19" transform="translate(-192.31 -200.41)"><path class="cls-1" d="M358.32,270.24v1.92a.48.48,0,0,0,.48.48.47.47,0,0,0,.48-.48v-1.92a.48.48,0,0,0-.48-.48.49.49,0,0,0-.48.48"/></clipPath><linearGradient id="linear-gradient-11" x1="-357.84" y1="799.92" x2="-357.84" y2="817.92" gradientTransform="matrix(1, 0, 0, -1, 524.33, 879.59)" xlink:href="#linear-gradient"/><clipPath id="clip-path-20" transform="translate(-192.31 -200.41)"><path class="cls-1" d="M360.24,270.72v1a.48.48,0,1,0,1,0v-1a.48.48,0,1,0-1,0"/></clipPath><linearGradient id="linear-gradient-12" x1="-359.76" y1="799.92" x2="-359.76" y2="817.92" gradientTransform="matrix(1, 0, 0, -1, 528.17, 879.59)" xlink:href="#linear-gradient"/><clipPath id="clip-path-21" transform="translate(-192.31 -200.41)"><path class="cls-1" d="M362.16,270.84v.72a.6.6,0,1,0,1.2,0v-.72a.6.6,0,1,0-1.2,0"/></clipPath><linearGradient id="linear-gradient-13" x1="-361.56" y1="799.92" x2="-361.56" y2="817.92" gradientTransform="matrix(1, 0, 0, -1, 532.01, 879.59)" xlink:href="#linear-gradient"/><clipPath id="clip-path-22" transform="translate(-192.31 -200.41)"><path class="cls-1" d="M364.08,266.28v9.84a.6.6,0,0,0,1.2,0v-9.84a.6.6,0,0,0-1.2,0"/></clipPath><linearGradient id="linear-gradient-14" x1="-363.48" y1="799.92" x2="-363.48" y2="817.92" gradientTransform="matrix(1, 0, 0, -1, 535.85, 879.59)" xlink:href="#linear-gradient"/><clipPath id="clip-path-23" transform="translate(-192.31 -200.41)"><path class="cls-1" d="M366.24,262.56v17a.48.48,0,0,0,.48.48.49.49,0,0,0,.48-.48v-17a.49.49,0,0,0-.48-.48.48.48,0,0,0-.48.48"/></clipPath><linearGradient id="linear-gradient-15" x1="-365.76" y1="799.92" x2="-365.76" y2="817.92" gradientTransform="matrix(1, 0, 0, -1, 540.17, 879.59)" xlink:href="#linear-gradient"/><clipPath id="clip-path-24" transform="translate(-192.31 -200.41)"><path class="cls-1" d="M368.16,265.2v12a.47.47,0,0,0,.48.48.48.48,0,0,0,.48-.48v-12a.48.48,0,0,0-.48-.48.47.47,0,0,0-.48.48"/></clipPath><linearGradient id="linear-gradient-16" x1="-367.68" y1="799.92" x2="-367.68" y2="817.92" gradientTransform="matrix(1, 0, 0, -1, 544.01, 879.59)" xlink:href="#linear-gradient"/><clipPath id="clip-path-25" transform="translate(-192.31 -200.41)"><path class="cls-1" d="M370.08,267.84v6.72a.48.48,0,0,0,.48.48.47.47,0,0,0,.48-.48v-6.72a.47.47,0,0,0-.48-.48.48.48,0,0,0-.48.48"/></clipPath><linearGradient id="linear-gradient-17" x1="-369.6" y1="799.92" x2="-369.6" y2="817.92" gradientTransform="matrix(1, 0, 0, -1, 547.85, 879.59)" xlink:href="#linear-gradient"/><clipPath id="clip-path-26" transform="translate(-192.31 -200.41)"><path class="cls-1" d="M372,269.88v2.64a.6.6,0,0,0,1.2,0v-2.64a.6.6,0,0,0-1.2,0"/></clipPath><linearGradient id="linear-gradient-18" x1="-371.4" y1="799.92" x2="-371.4" y2="817.92" gradientTransform="matrix(1, 0, 0, -1, 551.69, 879.59)" xlink:href="#linear-gradient"/><clipPath id="clip-path-45" transform="translate(-192.31 -200.41)"><rect class="cls-1" x="192.24" y="215.04" width="69.84" height="76.32"/></clipPath><clipPath id="clip-path-46" transform="translate(-192.31 -200.41)"><rect class="cls-1" x="552.96" y="222" width="64.32" height="64.32"/></clipPath></defs><g id="Layer_2" data-name="Layer 2"><g id="Layer_1-2" data-name="Layer 1"><g class="cls-2"><path class="cls-3" d="M471.26,200.41c.06.56.41.6.91.6,2.25,0,4.51,0,6.76,0a.19.19,0,0,1,0,.27l0,0a1.64,1.64,0,0,1-.76.08H473.3a10.35,10.35,0,0,0-2.42.23c-2.62,0-5.24,0-7.86,0a31.44,31.44,0,0,0-5.74-.22,9.91,9.91,0,0,0-3,.21q-8.22,0-16.44,0a12.45,12.45,0,0,0-4.94,0c-5.58,0-11.15,0-16.73,0a6.78,6.78,0,0,0-2-.21H293.82a5.45,5.45,0,0,0-2,.2,2.82,2.82,0,0,1-1.55.05,4.2,4.2,0,0,0-1.58-.26,29.64,29.64,0,0,0-7.68.82,19.69,19.69,0,0,0-3.89,1.54,13.17,13.17,0,0,0-3.3,2.14,16.22,16.22,0,0,0-2.43,3,15.32,15.32,0,0,0-1.15,2.29,22.6,22.6,0,0,0-1.6,6.71,45.12,45.12,0,0,0-.12,4.65v27.33a5.08,5.08,0,0,0,.33,2.11c.07,3.2,0,6.4,0,9.61a22,22,0,0,0-.36,4.86c0,9.4,0,18.8,0,28.2a22.46,22.46,0,0,0,1.5,8.3,16.19,16.19,0,0,0,3,4.86A16,16,0,0,0,280,312a27.81,27.81,0,0,0,9.56,1.21.91.91,0,0,1,.62.1.2.2,0,0,1,0,.28h0a28.79,28.79,0,0,1-11.82-1.66,15.13,15.13,0,0,1-8.91-9.33,23.33,23.33,0,0,1-1.32-7.88q0-15.45,0-30.91a42.75,42.75,0,0,0,.25-10.95c-.41-5.39-.14-10.77-.23-16.15s0-10.75,0-16.13a24.07,24.07,0,0,1,1.59-9.23A15.39,15.39,0,0,1,280.11,202a32.82,32.82,0,0,1,10-1H414.74a2.41,2.41,0,0,1,.66,0c.51.15.75-.09.92-.49.23,0,.49,0,.58.18.15.35.42.36.72.35h13.52a4.85,4.85,0,0,0,.66,0c.19,0,.42,0,.51-.23s.37-.3.63-.32a1.91,1.91,0,0,0,.66.22c1.14,0,2.27,0,3.4,0a1,1,0,0,0,.68-.29h.24a3.81,3.81,0,0,0,2.85.73c3.55.07,7.11.06,10.66,0a4.69,4.69,0,0,0,2.85-.66,6.7,6.7,0,0,0,2.36.22h4.8a1.63,1.63,0,0,0,1.07-.3h1.43c0,.43.27.53.7.54,1.57.05,3.14.06,4.72,0a.81.81,0,0,0,.82-.54Z" transform="translate(-192.31 -200.41)"/><path class="cls-4" d="M494.55,203.54a14,14,0,0,1,5.71,5.41,20.16,20.16,0,0,1,2.66,8.9c0,.25-.07.51.12.72v.94a1.19,1.19,0,0,0-.06.62v74.3a1.23,1.23,0,0,0,.06.63V296c-.12.91-.22,1.83-.37,2.74a17.25,17.25,0,0,1-4.52,9.62A16.94,16.94,0,0,1,489.2,313a37.21,37.21,0,0,1-8.69.58c-.27-.49-.18-.7.34-.72.88,0,1.76,0,2.64,0a7,7,0,0,0,1-.1,7.21,7.21,0,0,0,1.46-.13c.84-.25,1.73-.16,2.58-.34a13.76,13.76,0,0,0,6.11-2.36c.68-.53,1.28-1.14,1.91-1.72,1,0,1.4-.77,2-1.34a8.09,8.09,0,0,1,1.11-1.73,10.07,10.07,0,0,0,1-1.84,17.38,17.38,0,0,1,.7-2.11,30.16,30.16,0,0,0,.87-4.49c0-1.12.21-2.22.21-3.35q0-36.06,0-72.13a11,11,0,0,0-.18-2.14,7.36,7.36,0,0,1,0-1.05,29.62,29.62,0,0,0-.9-4.67,12.18,12.18,0,0,1-.71-2.11,10.39,10.39,0,0,0-1.11-2.08c-.39-.56-.79-1.1-1.23-1.63-.64-.72-1.11-1.66-2.23-1.84a.39.39,0,0,1-.28-.2,9.1,9.1,0,0,0-3.49-2.24,17.19,17.19,0,0,0-3.72-1,22.89,22.89,0,0,1-2.62-.34c-1.41-.18-2.82-.18-4.24-.24a3.6,3.6,0,0,1-1.18-.07c-.22-.33-.14-.51.28-.51a52.17,52.17,0,0,1,5.73.21,24.73,24.73,0,0,1,5.46,1.18,21.59,21.59,0,0,1,2.57,1.1" transform="translate(-192.31 -200.41)"/><path class="cls-5" d="M478.92,313.54l-1.49,0H450.12a1.62,1.62,0,0,1-.54,0c-.5-.17-.71.1-.87.48a.22.22,0,0,1-.21,0c-.16,0-.35,0-.43-.17-.37-.61-1-.57-1.57-.58-1.16,0-2.32,0-3.47,0h-17.6c-.66,0-1.3.17-2,.15-.43,0-.69.3-1,.58a2.64,2.64,0,0,1-.29.15H422a.66.66,0,0,0-.87-.59,3.25,3.25,0,0,1-.54,0h-128l-.84,0a.27.27,0,0,1,0-.38l0,0a2.64,2.64,0,0,1,1.12-.09H419.64a7.88,7.88,0,0,0,2.32-.21,4.87,4.87,0,0,1,.54,0h25.67a4.87,4.87,0,0,1,.54,0,7.25,7.25,0,0,0,2.08.21H478a1.89,1.89,0,0,1,.94.1.26.26,0,0,1,0,.37l0,0" transform="translate(-192.31 -200.41)"/><path class="cls-6" d="M503,295.06a1.18,1.18,0,0,1-.12-.74V220.24a1.15,1.15,0,0,1,.12-.73Z" transform="translate(-192.31 -200.41)"/><path class="cls-7" d="M470.18,200.41l.28.3c.22.23.15.38-.14.44a2.45,2.45,0,0,1-.54,0h-6.32c-.14,0-.29,0-.3-.22s.12-.19.24-.2a1,1,0,0,0,.54-.34Z" transform="translate(-192.31 -200.41)"/><path class="cls-8" d="M462.5,200.41c0,.62-.44.61-1,.6-2.17,0-4.34,0-6.51,0-.48,0-.42-.39-.67-.53-.08,0-.09,0,0-.1Z" transform="translate(-192.31 -200.41)"/><path class="cls-9" d="M454.34,200.41a.1.1,0,0,1,0,.1s-.08.05-.09.08c-.15.92-.88.77-1.52.77-4.42,0-8.85,0-13.27,0-.81,0-1.4-.11-1.58-1Z" transform="translate(-192.31 -200.41)"/><path class="cls-10" d="M448.6,314h.11v.11H422.2l.12-.11a1.52,1.52,0,0,1,1-.22c8,.12,16,0,24,.05a3.56,3.56,0,0,1,1.3.17" transform="translate(-192.31 -200.41)"/><path class="cls-11" d="M437.68,200.41c-.08.49-.34.63-.86.61a20.57,20.57,0,0,0-3.33,0c-.42.05-.39-.37-.61-.53q-.09-.06,0-.12Z" transform="translate(-192.31 -200.41)"/><path class="cls-12" d="M432.88,200.41v.12a.53.53,0,0,0-.36.47c0,.29-.23.36-.5.32a.79.79,0,0,0-.44-.38,1,1,0,0,0-.77-.24h-12.2a1,1,0,0,0-.77.25.75.75,0,0,0-.41.37c-.3,0-.56,0-.63-.33s-.27-.35-.48-.47c0,0,0-.07,0-.11Z" transform="translate(-192.31 -200.41)"/><path class="cls-13" d="M448.73,313H422a5.23,5.23,0,0,1-1.31.1H292.73a1.68,1.68,0,0,0-1,.1v.33h-1.58v-.22c-.28-.28-.66-.15-1-.16-.69,0-1.38,0-2.07,0-.21,0-.54.1-.53-.3.2-.19.45-.14.68-.15,1,0,1.95,0,2.92,0,1.32-.07,2.63,0,3.94,0q91.23,0,182.46,0a6.75,6.75,0,0,0,1.19-.1,17.12,17.12,0,0,1,2.68,0,3.36,3.36,0,0,0,1.14-.07,13.89,13.89,0,0,1,2.81.19.23.23,0,0,1,.18.14,22.71,22.71,0,0,1-3.5.09c-.44,0-.64.13-.57.57h-1.58v-.33a1.41,1.41,0,0,0-.88-.11H449.87a4.39,4.39,0,0,1-1.14-.09" transform="translate(-192.31 -200.41)"/><path class="cls-14" d="M494.55,203.54c-.7-.28-1.39-.59-2.09-.85a25.35,25.35,0,0,0-7.42-1.48c-1.3-.07-2.59-.1-3.89-.1-.27,0-.58-.05-.65.34a1.32,1.32,0,0,1-1.54.11.24.24,0,0,1,0-.31l0-.22a49.4,49.4,0,0,1,9.65.43,20.84,20.84,0,0,1,5.47,1.77,1.18,1.18,0,0,1,.5.31" transform="translate(-192.31 -200.41)"/><path class="cls-15" d="M478.93,201.45h1.57l4.8.15a5.35,5.35,0,0,1,.7.08,23.13,23.13,0,0,1,3.88.75,11.1,11.1,0,0,1,3.59,1.79c.22.17.53.41.11.71a6.89,6.89,0,0,1-1.71-.63c-1-.43-2-.57-3-.94-.31-.59-.94-.6-1.49-.71a26.64,26.64,0,0,0-5.64-.72,1.26,1.26,0,0,1-.33-.05c-.4-.15-.63,0-.67.4a.48.48,0,0,1-.47.38,4,4,0,0,1-1.42-.07,1.53,1.53,0,0,0-1.35-.61c-.26,0-.52,0-.78,0H293.93c-.32,0-.64,0-1,0a1.2,1.2,0,0,0-1,.51,2.2,2.2,0,0,1-.09.21.35.35,0,0,1-.17.15,11.63,11.63,0,0,1-1.56.06h-3.29a1.29,1.29,0,0,1-.7-.09c-.21-.44.19-.36.38-.38.87-.08,1.75,0,2.63-.06.21,0,.44.06.6-.12a.37.37,0,0,0,0-.21.41.41,0,0,0-.16-.16,5.33,5.33,0,0,0-2.18-.08c-1,.07-2.09.11-3.14.23a.31.31,0,0,1-.26-.1.26.26,0,0,1,0-.21c.33-.28.75-.21,1.13-.25,1.51-.12,3-.17,4.56-.14a.74.74,0,0,1,.46.1h1.57a1.9,1.9,0,0,1,1-.1H415.21a2.6,2.6,0,0,1,1,.12l5.44,0,11.35,0a20.28,20.28,0,0,1,4.8,0l6,0,10.51,0a.77.77,0,0,1,.47-.07c2.73,0,5.45-.16,8.17.07h7.92a5.74,5.74,0,0,1,1.17-.12h6.16a1.12,1.12,0,0,1,.7.11" transform="translate(-192.31 -200.41)"/><path class="cls-16" d="M416.21,201.46l-1.2,0H292.63c-.3,0-.6,0-.9,0a.47.47,0,0,1,.46-.21H414.88a2.11,2.11,0,0,1,1.33.23" transform="translate(-192.31 -200.41)"/><path class="cls-16" d="M286.56,312.88a19.33,19.33,0,0,0,3,.12c.24,0,.56-.08.55.33a33.13,33.13,0,0,1-9.15-.79,16.5,16.5,0,0,1-7.41-3.85,14.92,14.92,0,0,1-3.42-4.88,22,22,0,0,1-1.82-9c0-10.24,0-20.47,0-30.71a13.64,13.64,0,0,1,.36-2.46c.29.27.17.62.17.93q0,14.06,0,28.1a37.71,37.71,0,0,0,.64,8.61,32.58,32.58,0,0,0,.89,3.36,8.42,8.42,0,0,0,1.64,3,3,3,0,0,0,.88,1.3c.22.17.36.41.57.58.05.41.4.59.69.81a6.15,6.15,0,0,0,1.86,1.23,2.65,2.65,0,0,0,.62.14,2.47,2.47,0,0,1,.84.54,10.15,10.15,0,0,0,2.57,1.29,13.45,13.45,0,0,0,3.3.84,11.36,11.36,0,0,1,1.92.26c.4.23.91-.1,1.27.28" transform="translate(-192.31 -200.41)"/><path class="cls-15" d="M269.3,299.49a22,22,0,0,1-.57-5.54q0-15.84,0-31.66c0-.22,0-.43,0-.64q0-4.38,0-8.76c0-.3-.19-.6,0-.9a.59.59,0,0,1-.12-.31,7.73,7.73,0,0,1-.07-1.27c0-10.43,0-20.86,0-31.29a19.5,19.5,0,0,1,2-8.78,1.63,1.63,0,0,1,.11-.17,3,3,0,0,1,.8-1A.47.47,0,0,1,272,209c.2.08.22.26.24.43,0,.35,0,.69,0,1s-.15.49-.47.52-.68.39-.86.72a11.62,11.62,0,0,0-1.54,4.41,45.64,45.64,0,0,0-.36,5.72v71a33.93,33.93,0,0,0,.45,6,2,2,0,0,1,0,.54.57.57,0,0,1-.15.16" transform="translate(-192.31 -200.41)"/><path class="cls-17" d="M417.43,201.32l-.38-.66c.37-.19.74,0,1.12,0h13.12c.33,0,.66-.17,1,0-.12.21,0,.49-.25.66Z" transform="translate(-192.31 -200.41)"/><path class="cls-18" d="M270.85,210.31l-.1,0c-.34.11-.26.53-.54.69l-.07,0a10.49,10.49,0,0,1,1.95-3.44c2.45-3.21,5.87-4.9,9.82-5.75a33.43,33.43,0,0,1,7.67-.59c.22,0,.45,0,.58.22-1.45.05-2.9.08-4.35.14a9.52,9.52,0,0,0-1.76.22c-.48.38-1.09.26-1.63.4a3.69,3.69,0,0,0-.8.24,5,5,0,0,1-1.26.31,8.18,8.18,0,0,0-2.95,1.58c-.17.14-.36.27-.54.41a5.12,5.12,0,0,0-3.3,2.06,6.4,6.4,0,0,1-.65.73.74.74,0,0,0-.31.27c-.43.93-1.35,1.54-1.76,2.5" transform="translate(-192.31 -200.41)"/><path class="cls-18" d="M268.69,251.75l0,.24a1.74,1.74,0,0,1-.36-1.42q0-9.56,0-19.13c0-3.85,0-7.71,0-11.56a23.77,23.77,0,0,1,1.37-8,2.25,2.25,0,0,1,.42-.83h0a.35.35,0,0,1,0,.39,23.22,23.22,0,0,0-1.55,8.91v30.18a4.92,4.92,0,0,0,.1,1.27" transform="translate(-192.31 -200.41)"/><path class="cls-16" d="M463,201.46h-8.64a2.3,2.3,0,0,1,1.16-.23h6.09a3.9,3.9,0,0,1,1.39.23" transform="translate(-192.31 -200.41)"/><path class="cls-16" d="M478.93,201.45h-8a2.07,2.07,0,0,1,1-.22h7Z" transform="translate(-192.31 -200.41)"/><path class="cls-16" d="M437.8,201.46H433a1.57,1.57,0,0,1,.79-.22c1.07,0,2.14,0,3.22,0a1.57,1.57,0,0,1,.79.22" transform="translate(-192.31 -200.41)"/><path class="cls-19" d="M501.47,213.11a24.77,24.77,0,0,1,1.06,7.31V294a23.19,23.19,0,0,1-.35,4.4c-.19,1-.46,1.95-.69,2.92a6.67,6.67,0,0,1-.69,1.71c-.1.17-.12.45-.42.43s-.34-.24-.43-.44a.81.81,0,0,1-.07-.22,5.81,5.81,0,0,1,0-.59c0-.32.05-.65.42-.8s.6-.47.74-.83a19.14,19.14,0,0,0,1-4.07,17.65,17.65,0,0,0,.15-2.72c0-24.81,0-49.62,0-74.43a16.05,16.05,0,0,0-1.17-5.72c-.1-.28-.2-.61-.59-.66s-.36-.21-.44-.41a9.93,9.93,0,0,1-.4-1.2,1.31,1.31,0,0,1,0-.28,1,1,0,0,1,.26-.39c.31-.29.52-.27.74.11a8.38,8.38,0,0,1,.94,2.27" transform="translate(-192.31 -200.41)"/><path class="cls-20" d="M484.58,312.88l-3,0c0-.42.34-.33.58-.34a30.53,30.53,0,0,0,4.36-.53c.64-.13,1.26-.32,1.9-.45a.82.82,0,0,0,.61-.47,3.67,3.67,0,0,1,1.43-.55,19.66,19.66,0,0,0,3-1,.65.65,0,0,1,.41-.1c.36.21.14.45,0,.6a6.92,6.92,0,0,1-1.09.77,15,15,0,0,1-5.43,1.85,5.47,5.47,0,0,0-1.27.17,7.6,7.6,0,0,1-1.43.12" transform="translate(-192.31 -200.41)"/><path class="cls-21" d="M499.82,305.2a13.51,13.51,0,0,1-1.11,1.71c-.36.21-.73.42-1.15.09a4.36,4.36,0,0,1,.07-1.08c.19-.39.55-.67.73-1.07a14.83,14.83,0,0,0,.9-1.72c.18-.28.18-.75.7-.73a5.54,5.54,0,0,1-.14,2.8" transform="translate(-192.31 -200.41)"/><path class="cls-22" d="M497.89,306c.14.37-.23.61-.25.94.2.53-.2.81-.51,1.12a1.54,1.54,0,0,1-.47.26c-.52.47-1,1-1.52,1.46a13.46,13.46,0,0,1-6.49,2.64c-.06-.14,0-.16.14-.19a13.9,13.9,0,0,0,5.94-3c.34-.29.74-.52,1.07-.82a2.41,2.41,0,0,0,.78-1.18,6.64,6.64,0,0,0,.55-.64c.22-.23.27-.68.76-.59" transform="translate(-192.31 -200.41)"/><path class="cls-23" d="M488.65,202a14.59,14.59,0,0,1,6.91,2.85,3.16,3.16,0,0,1,.4.42,4.77,4.77,0,0,1,1.39,1.44,1.88,1.88,0,0,1,.26.64c.05.2.12.42-.15.54-.55-.17-.82-.65-1.18-1a2,2,0,0,0-.72-1c-.73-.6-1.49-1.18-2.27-1.72a13.89,13.89,0,0,0-4.45-1.91c-.1,0-.25,0-.19-.19" transform="translate(-192.31 -200.41)"/><path class="cls-24" d="M488.65,202a31.15,31.15,0,0,1,3.46,1.26,12.56,12.56,0,0,1,3.82,2.64c.23.24.64.45.48.91-.34.06-.53-.19-.75-.37a10.24,10.24,0,0,0-1.74-1.18c-.17-.1-.44-.15-.36-.45,0-.45-.41-.6-.71-.79a15.73,15.73,0,0,0-6.34-2.23,1.11,1.11,0,0,1-.51-.14,12.42,12.42,0,0,1,2.65.35" transform="translate(-192.31 -200.41)"/><path class="cls-24" d="M496.79,307.27c.14.24-.06.35-.19.5a14.17,14.17,0,0,1-7.28,4.41c-.23.07-.45.15-.68.24a11.63,11.63,0,0,1-2.63.34c.89-.19,1.78-.36,2.66-.58a14.69,14.69,0,0,0,4.54-2c.26-.16.55-.33.6-.68s.08-.28.22-.37a15.4,15.4,0,0,0,2.39-1.77.3.3,0,0,1,.37-.08" transform="translate(-192.31 -200.41)"/><path class="cls-25" d="M497.4,207.87c.11-.16,0-.31,0-.47.36-.39.72-.26,1.09,0a5.34,5.34,0,0,1,1.2,1.63c-.12.42.11.83.06,1.26a3.86,3.86,0,0,1-.16.95c-.16.1-.26,0-.33-.13a24.6,24.6,0,0,0-1.83-2.92.26.26,0,0,1,0-.31" transform="translate(-192.31 -200.41)"/><path class="cls-26" d="M498.49,207.39H497.4c-.39-.76-1-1.37-1.44-2.1a4.13,4.13,0,0,1,2.53,2.09" transform="translate(-192.31 -200.41)"/><path class="cls-6" d="M496.66,308.31l1-1.38a3.2,3.2,0,0,1,1.07,0,8.11,8.11,0,0,1-.72.92,1.33,1.33,0,0,1-1.33.48" transform="translate(-192.31 -200.41)"/><path class="cls-27" d="M499.56,211.24a6.46,6.46,0,0,0-.18-2c-.07-.28,0-.44.31-.25a8,8,0,0,1,1.09,2.09c-.27.09-.24-.19-.34-.29s-.14-.35-.36-.31-.24.23-.31.39,0,.15-.07.21l0,.26c-.09,0-.14,0-.1-.14" transform="translate(-192.31 -200.41)"/><path class="cls-28" d="M499.82,305.2c-.36,0-.16-.25-.13-.38a8.32,8.32,0,0,0,.22-2.43c0-.09,0-.12.1-.14l0,.61a.05.05,0,0,1,0,.05c.12.65.14.66.71.42a6.93,6.93,0,0,1-1,1.87" transform="translate(-192.31 -200.41)"/><path class="cls-29" d="M499.7,211.13a5.63,5.63,0,0,1,.17-1c.54.18.57.74.92,1a6.37,6.37,0,0,1,.68,2,12.79,12.79,0,0,0-.93-1.94c-.36-.52-.4-.54-.84,0" transform="translate(-192.31 -200.41)"/><path class="cls-20" d="M500.79,303.33c-.24.12-.26.61-.54.52s-.17-.53-.2-.82a1,1,0,0,1,0-.17c.36.59.36.58.74,0s.38-1.06.69-1.54a7,7,0,0,1-.69,2" transform="translate(-192.31 -200.41)"/><path class="cls-30" d="M291.74,313.21c0-.17.16-.21.31-.21H422a2.15,2.15,0,0,1-1.22.22H292.88l-1.14,0" transform="translate(-192.31 -200.41)"/><path class="cls-31" d="M448.73,313h29.4c.27,0,.62-.17.79.21H449.71a1.85,1.85,0,0,1-1-.21" transform="translate(-192.31 -200.41)"/><path class="cls-32" d="M448.6,314H422.32c.07-1.08.89-.92,1.61-.92h22.6c.71,0,1.51-.19,1.83.74,0,.08.16.12.24.18" transform="translate(-192.31 -200.41)"/><polygon class="cls-33" points="272.91 0.17 276.48 0.17 276.48 0.29 272.93 0.29 272.91 0.17"/><path class="cls-17" d="M453.74,200.64c.2.36.09.55-.33.58l-.78,0H439.46a2,2,0,0,1-.6,0c-.35-.07-.46-.26-.22-.57a3.75,3.75,0,0,1,1.25,0H452.5a3.69,3.69,0,0,1,1.24,0" transform="translate(-192.31 -200.41)"/><path class="cls-34" d="M453.74,200.64a12.68,12.68,0,0,1-1.85.11H440.8a15.62,15.62,0,0,1-2.16-.1,1.68,1.68,0,0,1,.83-.11h13.45a1.64,1.64,0,0,1,.82.11" transform="translate(-192.31 -200.41)"/><path class="cls-34" d="M432.28,200.66c-3.1.19-6.21.06-9.32.07-2,0-3.94.09-5.91-.07a1.31,1.31,0,0,1,.75-.13h13.73a1.29,1.29,0,0,1,.75.13" transform="translate(-192.31 -200.41)"/><path class="cls-20" d="M480.51,312.84c-.8,0-1.6.05-2.4.05H292.55c-.79,0-1.59,0-2.39,0a.37.37,0,0,1-.14-.29.35.35,0,0,1,.17-.28,2.5,2.5,0,0,1,1.62,0,4.07,4.07,0,0,0,1.59.24H476.66q.6,0,1.2,0a.73.73,0,0,0,.51-.16c.54-.62,1.26-.53,2-.5a.59.59,0,0,1,.22.05c.24.14.15.37.15.58a.49.49,0,0,1-.21.43" transform="translate(-192.31 -200.41)"/><path class="cls-35" d="M480.51,312.84v-.44a1.49,1.49,0,0,1,1.1-.33,6.06,6.06,0,0,0,2.35-.4c.23,0,.46-.11.69-.13a24.09,24.09,0,0,0,3.7-.42c.27,0,.55-.13.77.11.33.08.09.16,0,.21a7.54,7.54,0,0,1-2.3.78,20.34,20.34,0,0,1-4.54.53,1.3,1.3,0,0,0-.7.11l-1.06,0" transform="translate(-192.31 -200.41)"/><path class="cls-36" d="M290.15,312.62v.24l-3.6,0a7.27,7.27,0,0,1-1.32-.1c-.61-.12-1.25-.14-1.85-.28l-.19-.05a7.11,7.11,0,0,1-3.48-1.49c-.26-.22-.5-.4,0-.58a20.15,20.15,0,0,1,2.43.63.35.35,0,0,1,.13.14.56.56,0,0,0,.4.4c.82.16,1.59.5,2.4.67a19.78,19.78,0,0,0,4.28.24c.28,0,.57-.07.78.16" transform="translate(-192.31 -200.41)"/><path class="cls-37" d="M291.73,202.64c0-.91,0-.94.94-.94H478c.91,0,.91,0,.93.78a.17.17,0,0,1,0,.21.81.81,0,0,1-.46.11H292.89c-.39,0-.8.11-1.16-.16" transform="translate(-192.31 -200.41)"/><path class="cls-38" d="M291.73,202.64H478.16l.77,0a28.89,28.89,0,0,1,5.09-.16.34.34,0,0,1,.34.22c-.09.26-.33.17-.51.18h-1.94c.83,0,1.82,0,2.81,0a1.7,1.7,0,0,1,1.32.3c-.08.3-.33.23-.55.25-5,.41-10,.24-15,.24-28.82,0-57.64.06-86.46,0-7.8,0-15.59,0-23.38-.1-3.56-.06-7.12,0-10.68,0-16.22-.11-32.45,0-48.68-.07-4.32,0-8.65,0-13-.05-.28,0-.6.08-.67-.32.21-.22.48-.11.73-.13a6.12,6.12,0,0,0,1.81-.12h1.57a1.77,1.77,0,0,0,1,.11h.07a1.93,1.93,0,0,1-1.06-.11v-.1" transform="translate(-192.31 -200.41)"/><path class="cls-39" d="M290.16,202.75c-.13.26-.38.22-.62.22h-1.88c-.21.33-.55.26-.86.28a25.54,25.54,0,0,0-6.61,1.16,13,13,0,0,0-8,7,17.77,17.77,0,0,0-1.53,5.48,25.91,25.91,0,0,0-.23,2.92c0,.54,0,1.08,0,1.63v71.3c0,.54,0,1.09,0,1.63a20.16,20.16,0,0,0,2,9.27c.07.13.18.27.12.45a.37.37,0,0,1-.19.23.47.47,0,0,1-.31,0,.86.86,0,0,1-.24-.3,10.27,10.27,0,0,1-1.37-3.36,15.13,15.13,0,0,1-.73-4.05c-.21-2.32-.14-4.65-.14-7V220.64a27.13,27.13,0,0,1,.59-5.89,6.45,6.45,0,0,1,.28-.95,13.26,13.26,0,0,1,.78-2.3c.12-.25.18-.58.56-.61l.26-.45c.06-.09,0-.21.08-.31a7.45,7.45,0,0,1,2.31-3.21c.64-.54,1.27-1.1,1.93-1.61A1.21,1.21,0,0,1,277,205c.79-.32,1.44-.89,2.26-1.17.14-.05.27-.16.44-.13.67-.08,1.25-.49,1.93-.53a5.8,5.8,0,0,1,1.79-.35,3,3,0,0,0,.8-.19,2.85,2.85,0,0,0,1,0c.27-.07.58-.16.8.14l3.37,0c.24,0,.48,0,.71.06" transform="translate(-192.31 -200.41)"/><path class="cls-40" d="M486,203.1c-1.77-.21-3.55-.07-5.32-.15v-.17l3.67-.05a.63.63,0,0,1,.57-.26,11.76,11.76,0,0,1,3.77.51.41.41,0,0,1,.31.23,24.27,24.27,0,0,1,4.56,1.63,19.46,19.46,0,0,1,2.85,2l1,1a18,18,0,0,1,2.16,3.37l.1.14.6,1.52a.3.3,0,0,1,.23.36c-.06.15-.15.28-.35.25-.36-.26-.37-.75-.68-1a1.52,1.52,0,0,0-.55-1.3,2.85,2.85,0,0,0-.55-1.23,18,18,0,0,0-2-2.49,13.53,13.53,0,0,0-5.09-3,9.56,9.56,0,0,0-2.37-.52,5.82,5.82,0,0,0-2.33-.52.63.63,0,0,1-.56-.27" transform="translate(-192.31 -200.41)"/><path class="cls-35" d="M489,203.21a19.87,19.87,0,0,0-3.45-.45c-.39,0-.79,0-1.2,0l-.25-.1a12.16,12.16,0,0,0-2.41-.24c-.42,0-.87,0-1.18-.35,0-.27.1-.46.41-.44,2.74.13,5.5.2,8.06,1.36.09,0,.26,0,.24.18s-.14.05-.22.07" transform="translate(-192.31 -200.41)"/><path class="cls-20" d="M279.76,203.93a29.35,29.35,0,0,0-2.66,1.26c-.47-.17-.23-.42,0-.59a11,11,0,0,1,4.25-2.27c.07,0,.16,0,.21-.08a11.8,11.8,0,0,1,2.51-.45v.12c-.34.42-.88.38-1.34.52a11.15,11.15,0,0,0-2.94,1.49" transform="translate(-192.31 -200.41)"/><path class="cls-41" d="M279.76,203.93c0-.37.28-.48.51-.63a11.23,11.23,0,0,1,3.78-1.38,34,34,0,0,1,5.7-.32,1.43,1.43,0,0,1,.39.11c-.18.21-.43.15-.67.16a39.54,39.54,0,0,0-4.86.33,21.78,21.78,0,0,0-2.76.92.28.28,0,0,0-.17.22Z" transform="translate(-192.31 -200.41)"/><path class="cls-42" d="M281.68,203.34c-.5-.18,0-.28.06-.33a8.25,8.25,0,0,1,2.68-.95,28.06,28.06,0,0,1,5.72-.35v.23c-.22.24-.52.17-.79.16a23.18,23.18,0,0,0-4.64.35,2.73,2.73,0,0,0-1.25.53c-.57.24-1.21.16-1.79.36" transform="translate(-192.31 -200.41)"/><path class="cls-33" d="M286.09,202.73l-1.92.14c-.06-.32.22-.33.42-.41a8.88,8.88,0,0,1,2.56-.39,26.6,26.6,0,0,1,2.68,0,.46.46,0,0,1,.32.11c.06.4-.18.45-.5.45h-2.81a1.93,1.93,0,0,0-.75.11" transform="translate(-192.31 -200.41)"/><path class="cls-43" d="M290.16,202.16a32.82,32.82,0,0,0-4.09.12,4,4,0,0,0-1.9.59,1.3,1.3,0,0,1-.7.11c-.11,0-.28,0-.31-.11s.14-.17.24-.2a9.94,9.94,0,0,1,2.47-.62,35.93,35.93,0,0,1,4.28-.12Z" transform="translate(-192.31 -200.41)"/><path class="cls-44" d="M480.5,202.05c1,.06,2.05.17,3.07.33a1,1,0,0,1,.52.25h-5.16v-.14c.34,0,.68,0,1,0s.53-.13.54-.47" transform="translate(-192.31 -200.41)"/><path class="cls-25" d="M273.25,307.64a1.43,1.43,0,0,1-.49-.57,18,18,0,0,0-.65-1.73.61.61,0,0,1,0-.51.88.88,0,0,1,.1-.44.25.25,0,0,1,.34,0,.19.19,0,0,1,.05.09c.6,1.11,1.58,2,2.26,3a.57.57,0,0,1,0,.26c-.53.49-1,.46-1.59-.11" transform="translate(-192.31 -200.41)"/><path class="cls-45" d="M283.21,312.4h.12a.09.09,0,0,1,0,.12h0A12,12,0,0,1,276,309.1c-.18-.18-.44-.4-.05-.64.27,0,.45.13.64.25.66.45,1.42.75,2.05,1.25A3.18,3.18,0,0,0,280,311.1a10.27,10.27,0,0,0,3.26,1.3" transform="translate(-192.31 -200.41)"/><path class="cls-46" d="M273.25,307.64a3.93,3.93,0,0,0,1.45.1c.47-.12.54.34.72.54a12.84,12.84,0,0,0,1.1,1.24.28.28,0,0,1,.12.3c-1.64,0-2.49-1.12-3.39-2.18" transform="translate(-192.31 -200.41)"/><path class="cls-47" d="M272.06,303.9c.11.05.11.15.12.24a.56.56,0,0,1-.28.78c-.36.16-.53-.18-.69-.4a16.12,16.12,0,0,1-1-1.78,13.21,13.21,0,0,1-.93-3.26l0-.12c.39,0,.34.37.39.58a11.52,11.52,0,0,0,1.31,3,2.77,2.77,0,0,0,1,1" transform="translate(-192.31 -200.41)"/><path class="cls-23" d="M276.63,309.82l-1.93-2.08v-.24a1.7,1.7,0,0,1,1.3,1.07c.09.54.57.8.94,1.12a22.81,22.81,0,0,0,3,2,7.91,7.91,0,0,1-2.72-1.44c-.21-.14-.41-.3-.62-.45" transform="translate(-192.31 -200.41)"/><path class="cls-48" d="M270.23,302.75c.35.53.7,1.07,1.06,1.59.13.19.29.42.56.36s.3-.33.33-.56l.11.12c.06,0,.06.08,0,.11l0,.46c.12.21,0,.45.09.67s.09.41-.13.51-.33-.12-.47-.24a11.58,11.58,0,0,1-1.57-3" transform="translate(-192.31 -200.41)"/><path class="cls-49" d="M271.8,305.78c.32.19.51.16.5-.26v-.69a6.18,6.18,0,0,1,.46,2.24,4.3,4.3,0,0,1-1-1.29" transform="translate(-192.31 -200.41)"/><path class="cls-50" d="M283.32,312.55v-.14a13.85,13.85,0,0,1,1.92.37,8.92,8.92,0,0,1-1.92-.23" transform="translate(-192.31 -200.41)"/><path class="cls-51" d="M272.06,303.9c-.6.24-.89-.16-1.14-.56a9.79,9.79,0,0,1-1.32-3c-.08-.32-.19-.63-.28-.94-.79-4.94-.47-9.91-.48-14.87q-.06-31.92,0-63.85A21.55,21.55,0,0,1,270,213a5.4,5.4,0,0,1,1.32-2.26c.11-.09.15-.31.36-.23s.14.26.16.41l-1.08,2.79c-.33,0-.34.3-.41.49a14.46,14.46,0,0,0-.85,4.5c-.12,7.83,0,15.67-.05,23.5q0,26.09,0,52.17a17.83,17.83,0,0,0,.79,5.57c.1.31.09.71.53.83a19.51,19.51,0,0,0,1.32,3.16" transform="translate(-192.31 -200.41)"/><path class="cls-31" d="M268.69,251.75a2.32,2.32,0,0,1-.23-1.13c0-10.34,0-20.68,0-31a22.08,22.08,0,0,1,1.52-8.09,4.1,4.1,0,0,0,.14-.5c.12-.21.25-.42.38-.62s.12-.24.23,0a19.41,19.41,0,0,0-1.8,6,42.45,42.45,0,0,0-.22,6.76c0,9.21,0,18.41,0,27.62,0,.33,0,.65,0,1" transform="translate(-192.31 -200.41)"/><path class="cls-28" d="M272.2,210.21l-.13.23c0-.3,0-.61,0-.92,0-.13,0-.29-.19-.31s-.22.08-.3.17c-.26.28-.36.7-.69.93a10,10,0,0,1,1.92-2.93c.45.07.31.38.25.63-.2.75-.6,1.45-.82,2.2" transform="translate(-192.31 -200.41)"/><path class="cls-52" d="M281.52,202.26a16.31,16.31,0,0,0-2.75,1.35,14.56,14.56,0,0,0-1.59,1.22.25.25,0,0,0-.08.36,20.59,20.59,0,0,0-2.52,1.91.25.25,0,0,1-.15-.21,3.71,3.71,0,0,1,1.63-2,2.47,2.47,0,0,1,.7-.41,10.94,10.94,0,0,1,4.18-2.14c.19-.05.39-.08.58-.11" transform="translate(-192.31 -200.41)"/><path class="cls-53" d="M274.58,206.82v.28a19.81,19.81,0,0,0-2.37,3.11,5.79,5.79,0,0,1,.43-2c.09-.27.28-.53.13-.83a1.71,1.71,0,0,1,.6-.68c.51-.35.9-.31,1.22.13" transform="translate(-192.31 -200.41)"/><path class="cls-38" d="M274.58,206.82l-1.21-.13a4.65,4.65,0,0,1,3.39-2.19,28,28,0,0,0-2.18,2.32" transform="translate(-192.31 -200.41)"/><path class="cls-42" d="M500.37,213.22l-.11-.33c.33-.59.57-.21.72.1a12.73,12.73,0,0,1,1.11,3.79,36,36,0,0,1,.24,5.4q0,36.16,0,72.34a17.52,17.52,0,0,1-1,6.29,3.06,3.06,0,0,1-.45.88c-.27.32-.47.34-.56-.12-.22-.17-.12-.38-.07-.58a27.8,27.8,0,0,0,.74-3.63.5.5,0,0,1,.24-.44.44.44,0,0,0,.31-.44c-.05-.7.18-1.36.18-2.06q0-37.2,0-74.4c0-1-.21-1.93-.27-2.89a.52.52,0,0,0-.33-.48c-.07,0-.16-.08-.17-.15a15.39,15.39,0,0,1-.54-3.28" transform="translate(-192.31 -200.41)"/><path class="cls-54" d="M501.22,297a34,34,0,0,1-1,4.57l-.26.68-.1.14a11.55,11.55,0,0,1-1.39,2.56l-.12.12c-.13.14-.14.49-.44.33s-.06-.41.05-.56a5,5,0,0,0,.41-1.36c.21-.68.53-1.31.78-2,.06-.16.12-.34.35-.33.27.29.27.29.18.69.09-.79.52-1.71.58-2.71a11.29,11.29,0,0,0,.57-4,20,20,0,0,1,.19-2.89q0-36.06,0-72.11c0-.33-.11-.7.15-1,.31-.05.36.18.4.39a4.46,4.46,0,0,1,0,.82v74.15a16.41,16.41,0,0,1-.24,2.11.46.46,0,0,1-.2.38" transform="translate(-192.31 -200.41)"/><path class="cls-55" d="M489.11,311.23a37.41,37.41,0,0,1-4.09.49h-.41a.2.2,0,0,1-.2,0c-.12-.05-.27-.08-.21-.27.51-.45,1.13-.22,1.71-.28a14.74,14.74,0,0,0,2.2-.11,17.55,17.55,0,0,1-2.61.12c-.17,0-.37,0-.48-.17s.21-.29.4-.3a25.59,25.59,0,0,0,4.85-.81,8.31,8.31,0,0,0,4.49-1.74,15.55,15.55,0,0,0,2-1.72c.12-.12.24-.26.44-.17s.07.27.08.41l-.48.59a19.07,19.07,0,0,1-3,2.22,23.65,23.65,0,0,1-4.7,1.73" transform="translate(-192.31 -200.41)"/><path class="cls-56" d="M497.27,306.69c-.11-.33-.24-.25-.43,0a12.22,12.22,0,0,1-2.82,2.23,7.41,7.41,0,0,1-3.57,1.2c-.06-.39.29-.36.5-.44a18.93,18.93,0,0,0,2.87-1.29,11.52,11.52,0,0,0,4.26-4.34c.12-.19.15-.52.52-.45a4.12,4.12,0,0,1-.54,1.74l.46-.35-.63,1.05Z" transform="translate(-192.31 -200.41)"/><path class="cls-57" d="M447.25,313.9H423.77c-.49-.23-.5-.32-.11-.66h22.75a5.65,5.65,0,0,0,.58,0c.39.07.55.26.26.62" transform="translate(-192.31 -200.41)"/><path class="cls-48" d="M423.66,313.25a.43.43,0,0,0,.11.66l-.36,0c-.28,0-.46-.08-.45-.39s.24-.3.46-.31l.24,0" transform="translate(-192.31 -200.41)"/><path class="cls-58" d="M447.25,313.9c.07-.65-.51-.5-.84-.65a8.77,8.77,0,0,1,.89,0,.44.44,0,0,1,.38.51c0,.24-.27.12-.43.13" transform="translate(-192.31 -200.41)"/><path class="cls-59" d="M480.51,311.94h-1c-.34,0-.59.06-.62.45s-.21.35-.46.36H292.79c-.37,0-.87.24-1.08-.34a.44.44,0,0,1,0-.64,1.14,1.14,0,0,1,.7-.12H476.94c1,0,1.91-.16,2.87-.1.29,0,.63,0,.7.39" transform="translate(-192.31 -200.41)"/><path class="cls-6" d="M480.51,311.94c-.17-.21-.41-.14-.62-.14H291.73a.13.13,0,0,1,.09-.16h186a1.72,1.72,0,0,1,.76.07s-.11.05-.06,0,0,0-.05,0-.4,0-.6,0H292.5a2,2,0,0,0-.77.05c-.46.45-1,.27-1.55.19a10.92,10.92,0,0,0-2.06-.13c-.25,0-.52.07-.72-.14,0-.38.28-.37.5-.38h1.36c3.66,0,7.32,0,11,0,16.18-.13,32.35.07,48.52-.09,10.74-.11,21.48,0,32.22-.08,33.45-.26,66.91,0,100.36-.12,1.44,0,2.85.28,4.29.23.14,0,.39,0,.36.28a6.65,6.65,0,0,0-1.78.12,25.84,25.84,0,0,1-2.88.05c.9.05,2,0,3.07,0l.21,0-.64.1c-1,.27-2,.14-3,.31a.41.41,0,0,1-.35-.19.14.14,0,0,0-.11,0" transform="translate(-192.31 -200.41)"/><path class="cls-60" d="M290.15,312.62a21.65,21.65,0,0,1-6.22-.45,7.3,7.3,0,0,1-1.56-.57c-.12-.06-.46-.08-.22-.37s.48-.15.72-.13a5.53,5.53,0,0,1,2.16.41c.09.28.31.34.58.38a31.08,31.08,0,0,0,4,.13.76.76,0,0,1,.63.23.22.22,0,0,1,0,.16Z" transform="translate(-192.31 -200.41)"/><path class="cls-59" d="M480.62,312a17.86,17.86,0,0,1,3.35-.12c-.36.35-.84.3-1.28.36-.72.09-1.46.14-2.19.21a.61.61,0,0,1,.12-.45" transform="translate(-192.31 -200.41)"/><path class="cls-61" d="M290.18,312.41l0-.13a.38.38,0,0,1-.13-.44.35.35,0,0,1,.14-.13h1.55a.17.17,0,0,0,0,.1v.6h-1.53" transform="translate(-192.31 -200.41)"/><path class="cls-62" d="M285,311.69l-2.89-.46,0-.09a9.59,9.59,0,0,0-2-.61,10.86,10.86,0,0,1-2.84-1.33,12.51,12.51,0,0,1-4.57-4.48,1.85,1.85,0,0,1-.25-.58,19.45,19.45,0,0,1-1.72-5.05,22.39,22.39,0,0,1-.43-4.62c.12-.14,0-.5.39-.41a.38.38,0,0,1,.16.12,2.06,2.06,0,0,1,.09.95,19.88,19.88,0,0,0,1.45,7.38,12.22,12.22,0,0,0,6.8,6.75,22,22,0,0,0,6.25,1.48c1,.09,1.95.09,2.93.09H483.9c.39,0,.8-.14,1.15.17a32.14,32.14,0,0,0,3.8-.09,16.24,16.24,0,0,1-2.86.55,30.12,30.12,0,0,0-3.15-.22,69,69,0,0,0-7.19-.12c-30.6,0-61.2-.06-91.8,0-7.68,0-15.35,0-23,.09-3.53.05-7.07,0-10.61.05-16.17.13-32.34,0-48.5.09-4.56,0-9.12,0-13.67.08a1.28,1.28,0,0,0-.64.11,1.51,1.51,0,0,1-1.1.36c-.42-.09-.9.07-1.27-.25" transform="translate(-192.31 -200.41)"/><path class="cls-63" d="M272.42,304.13a18.08,18.08,0,0,0,2.07,2.78,14.77,14.77,0,0,0,7.32,4l.72.18-.42.07a21.34,21.34,0,0,1-2.35-.61c-.47,0-.93,0-1.19-.48-.87-.47-1.74-.93-2.56-1.48l-1.31-1.07a21.45,21.45,0,0,1-2.41-3.12v-.12Z" transform="translate(-192.31 -200.41)"/><path class="cls-50" d="M278.57,310.05l1.18.48c-.16.27.12.31.24.4a8.59,8.59,0,0,0,2.61,1.24l.61.23a9.42,9.42,0,0,1-4.54-2c-.14-.11-.23-.22-.1-.39" transform="translate(-192.31 -200.41)"/><path class="cls-64" d="M270.62,294.13h-.12c-.23-.1-.16-.28-.16-.45V220.07a.62.62,0,0,0-.08-.44,19.39,19.39,0,0,1,2.62-9.9,13.06,13.06,0,0,1,6.64-5.35,23.22,23.22,0,0,1,8.13-1.4,1.44,1.44,0,0,0,.71.11c7.91-.09,15.82.14,23.73.12,12,0,23.91,0,35.87,0,3.87,0,7.75,0,11.62.05,7.41.15,14.83,0,22.24.08,4,.06,8.07,0,12.11,0,29.07.13,58.13,0,87.19.05,1.51,0,3-.26,4.54-.24a1.33,1.33,0,0,0,.34-.1,29.72,29.72,0,0,1,3.12.47c0,.38-.35.3-.56.27a29.5,29.5,0,0,0-3.52-.1c-.73,0-1.47,0-2.21,0H287.49a21.93,21.93,0,0,0-7.78,1.34,12.46,12.46,0,0,0-7.82,8.25,21.08,21.08,0,0,0-1,6.5c-.12,24.31,0,48.63-.07,72.95,0,.45.22,1-.23,1.36" transform="translate(-192.31 -200.41)"/><path class="cls-30" d="M291.73,202.74h187c-.05.27-.22.2-.34.21a4.86,4.86,0,0,1-.54,0H292.78c-.35,0-.77.18-1-.21Z" transform="translate(-192.31 -200.41)"/><path class="cls-65" d="M270.74,300.75c0,.16.05.35-.17.53a5,5,0,0,1-.9-2.16,20.64,20.64,0,0,1-.55-5.37V220.67a22.37,22.37,0,0,1,.67-5.87,9,9,0,0,1,.51-1.24c.06-.14.15-.34.33-.28s.06.27.12.41a38.6,38.6,0,0,0-.83,9.94q0,34.2,0,68.41a34,34,0,0,0,.82,8.71" transform="translate(-192.31 -200.41)"/><path class="cls-3" d="M270.27,219.63c.21.12.15.33.15.52v73.34a1.34,1.34,0,0,0,.07.63c-.07.12-.08.28-.23.35V220.73c0-.37,0-.73,0-1.1" transform="translate(-192.31 -200.41)"/><path class="cls-54" d="M485.05,203.56a24.77,24.77,0,0,1,3.55.1.74.74,0,0,0,.52-.1,18.2,18.2,0,0,1,5.42,2.21A13,13,0,0,1,499.2,211c-.06.23.1.43.15.64s.14.45-.07.64-.4-.08-.48-.28a5,5,0,0,1-.38-.89,5.15,5.15,0,0,0-1.7-3,11.65,11.65,0,0,0-3.62-2.68,6.43,6.43,0,0,0-2.44-.63,24.26,24.26,0,0,0-5.2-.93c-.19,0-.43,0-.41-.29" transform="translate(-192.31 -200.41)"/><path class="cls-66" d="M499.79,212.31l.38,1.13c.4.32.31.82.46,1.24a4.26,4.26,0,0,1,.1.49c-.09,1.23.11,2.44.13,3.66a3.67,3.67,0,0,1,0,.81c-.05.28-.08.46-.42.3a22.72,22.72,0,0,1-.26-2.47c-.11-1.09-.36-2.15-.55-3.22a6.78,6.78,0,0,0-.09-1.42c0-.21-.15-.5.26-.52" transform="translate(-192.31 -200.41)"/><path class="cls-67" d="M500.61,215.22l-.44-1.78.2-.22c.34,1.07.49,2.18.73,3.26a2.85,2.85,0,0,1,.25,2.3.3.3,0,0,1-.21.08.34.34,0,0,1-.3-.31c0-1.12-.25-2.21-.23-3.33" transform="translate(-192.31 -200.41)"/><path class="cls-68" d="M499.79,212.31c-.22.34,0,.67,0,1a1.83,1.83,0,0,1,0,.84.2.2,0,0,1-.25-.1,7,7,0,0,1-.49-1.46.29.29,0,0,1,.13-.3c.1-.43-.19-.85,0-1.28a6.37,6.37,0,0,1,.6,1.3" transform="translate(-192.31 -200.41)"/><path class="cls-69" d="M501.24,218.81a18,18,0,0,0-.14-2.32c.26-.24.41-.2.47.15a20.21,20.21,0,0,1,.39,3.1q0,37.5,0,75a11,11,0,0,1-.47,3.07c-.33-.25-.2-.55-.26-.79.28-10.91.09-21.83.12-32.74,0-14.5,0-29,0-43.51a5.89,5.89,0,0,0-.09-1.62.21.21,0,0,1,0-.3l0,0" transform="translate(-192.31 -200.41)"/><path d="M499.19,212.29a11.9,11.9,0,0,0,.61,1.86,28.71,28.71,0,0,1,.73,5.83.67.67,0,0,1,.27.61c0,.43,0,.86,0,1.28V293.3a11.71,11.71,0,0,0,0,1.45,2,2,0,0,1-.17,1.25c-.14.23-.07.53-.1.79a30.08,30.08,0,0,1-.59,3.9c-.06.24-.1.5-.44.54l-1,2.33a17.19,17.19,0,0,1-2.28,3.1,13.35,13.35,0,0,1-5.16,3.14c-.24.08-.48.19-.71.28a22.24,22.24,0,0,1-5,.83,1.8,1.8,0,0,0-.4.1H287.92a23.9,23.9,0,0,1-7.66-1.13,12.78,12.78,0,0,1-8.4-8.1,22.28,22.28,0,0,1-1.18-6.91,1.92,1.92,0,0,0-.07-.75V230.58c0-3.15,0-6.29,0-9.43a23.8,23.8,0,0,1,1.53-9.13,12.71,12.71,0,0,1,7.87-7.26,23.35,23.35,0,0,1,7.83-1.21H482.54a14.91,14.91,0,0,1,2.5,0c.77.09,1.53.16,2.29.27a22.63,22.63,0,0,1,3.47.78,11.36,11.36,0,0,1,5.49,3A8.56,8.56,0,0,1,498.6,211a6.74,6.74,0,0,0,.59,1.28" transform="translate(-192.31 -200.41)"/><path class="cls-9" d="M500.53,294.83V220.55c0-.19,0-.39,0-.58a16.1,16.1,0,0,0,0-3.4,2.69,2.69,0,0,1,.07-1.35c.27,1.18.3,2.4.51,3.59a1.34,1.34,0,0,1,.05.63v75.21a1.34,1.34,0,0,1-.05.63c-.15,1.36-.23,2.72-.51,4.06-.36,0-.34-.2-.31-.45.14-1.14.18-2.29.27-3.44a1.1,1.1,0,0,0,0-.62" transform="translate(-192.31 -200.41)"/><path d="M501.12,295.28V219.1a2.81,2.81,0,0,1,0-.29h.12v.33c0,.52,0,1,0,1.56v73a4.52,4.52,0,0,1-.12,1.55" transform="translate(-192.31 -200.41)"/><path class="cls-70" d="M500.53,294.83a15.17,15.17,0,0,1,0,3.16c0,.45-.19.91.08,1.35a14.52,14.52,0,0,1-1.1,3.44,1.58,1.58,0,0,1,0-.81c0-.25,0-.5,0-.75a27.08,27.08,0,0,0,1-6.39" transform="translate(-192.31 -200.41)"/><path d="M484.4,311.67h-3.62v-.08h3.43l.19.08" transform="translate(-192.31 -200.41)"/><path d="M291.72,311.71a1.91,1.91,0,0,1,1.06-.12H478.64v.11H291.72Z" transform="translate(-192.31 -200.41)"/><path d="M286.33,311.7a2.63,2.63,0,0,1,1.08-.11h2.13a1.05,1.05,0,0,1,.63.12.17.17,0,0,0,0,.1.69.69,0,0,1-.51.2c-.91,0-1.81,0-2.71,0a.65.65,0,0,1-.62-.3" transform="translate(-192.31 -200.41)"/><path class="cls-71" d="M286.33,311.7a32.72,32.72,0,0,0,3.84.1v.48c-1.37-.07-2.73,0-4.09-.12a4.48,4.48,0,0,1-1.54-.39l.51-.09,1.28,0" transform="translate(-192.31 -200.41)"/><path class="cls-56" d="M498.6,211a17.55,17.55,0,0,0-2.16-3,13.35,13.35,0,0,0-5.09-3.19l-.55-.23c.16-.18.33-.08.5,0a11.74,11.74,0,0,1,5.58,3.4,9.92,9.92,0,0,1,1.29,1.67,2.76,2.76,0,0,1,.43,1.37" transform="translate(-192.31 -200.41)"/><path class="cls-72" d="M279.25,205.42a18.6,18.6,0,0,1,6.06-1.5,33.93,33.93,0,0,1,3.77-.13H482.91a24.64,24.64,0,0,1,8.14,1.2c.28.1.55.22.83.34-.09.33-.33.2-.53.16-.47-.08-.91-.29-1.37-.4a30.84,30.84,0,0,0-4.69-.69c-1.6-.11-3.2-.08-4.79-.08H288.33a26.21,26.21,0,0,0-8.39,1.19c-.22.08-.52.3-.69-.09" transform="translate(-192.31 -200.41)"/><path class="cls-72" d="M491.28,309.48a21.8,21.8,0,0,1-7,1.28c-.46,0-.92,0-1.38,0H288.38a23.61,23.61,0,0,1-8.58-1.37l-.65-.29c.14-.38.44-.19.65-.11a23.73,23.73,0,0,0,4,.94c1.18.17,2.37.19,3.56.3.35,0,.71,0,1.07,0H483a30,30,0,0,0,6.81-.69,8.81,8.81,0,0,1,1-.27c.19,0,.4-.09.46.19" transform="translate(-192.31 -200.41)"/><path class="cls-73" d="M271.35,298a18.08,18.08,0,0,1-.24-3c.27-1.21.36-2.44.55-3.66a52.68,52.68,0,0,0,.24-7.43c0-2.43,0-4.86,0-7.28s0-4.83,0-7.24,0-4.89,0-7.34c0-2.23,0-4.46,0-6.68,0-2.43,0-4.85,0-7.27,0-2.22,0-4.45,0-6.67s0-4.46,0-6.69c0-2.49,0-5,0-7.48a20,20,0,0,0-.07-2.68c-.25-1.63-.36-3.27-.7-4.89a14.91,14.91,0,0,1,.24-2.91c.4-.06.42.26.43.48.05.91.4,1.76.52,2.66a15.83,15.83,0,0,1,.53,3.15c0,.39.36.79.37,1.25V290a3,3,0,0,1-.35,1.38.43.43,0,0,0-.06.27,13.75,13.75,0,0,1-.7,3.92,18.73,18.73,0,0,1-.39,2c-.06.18,0,.45-.35.38" transform="translate(-192.31 -200.41)"/><path class="cls-34" d="M500.15,217.53a13.44,13.44,0,0,1,.11,2.1,61.82,61.82,0,0,0-.7,9.32c0,14.3,0,28.59,0,42.89q0,8.61,0,17.24a34,34,0,0,0,.47,4.26,5.37,5.37,0,0,0,.23,1.59,13.38,13.38,0,0,1-.12,2.1c-.54.16-.62-.26-.69-.58-.14-.69-.21-1.4-.38-2.1-.22-.88-.36-1.78-.55-2.68-.09-.39-.38-.73-.33-1.16s0-.82,0-1.22V225.56c0-.42,0-.85,0-1.28s.21-.76.29-1.15c.24-1.22.44-2.45.76-3.66.15-.56.12-1.15.32-1.7.08-.25.16-.64.58-.24" transform="translate(-192.31 -200.41)"/><path class="cls-28" d="M273.6,210.18a3.88,3.88,0,0,1,.83-1.18,17.43,17.43,0,0,1,5.19-2.82,22.1,22.1,0,0,1,9-1.52H483.24a24.61,24.61,0,0,1,6.93.9,36.67,36.67,0,0,1,4.26,1.87,9.1,9.1,0,0,1,2.38,1.47,6.4,6.4,0,0,1,.82,1.06c-.23.4-.49.16-.71,0a31.74,31.74,0,0,0-6.15-3.46,19.67,19.67,0,0,0-5.84-1.15c-3-.2-6.08-.11-9.11-.11H289.3a27,27,0,0,0-7.59.88,15.81,15.81,0,0,0-4.65,2.17c-.93.65-1.9,1.25-2.85,1.87-.2.14-.41.36-.61,0" transform="translate(-192.31 -200.41)"/><path class="cls-28" d="M497.52,304.71a4.35,4.35,0,0,1-.93,1.2,21.18,21.18,0,0,1-10.26,3.84,23.06,23.06,0,0,1-2.63.15H287.52a21.31,21.31,0,0,1-7.17-1.18c-1.41-.5-2.68-1.29-4.05-1.86a7.65,7.65,0,0,1-1.87-1.28,3.08,3.08,0,0,1-.84-1.32c.23-.1.37.07.52.18a30.66,30.66,0,0,0,6.48,3.67,20.48,20.48,0,0,0,5.32,1.1c1.93.19,3.87.12,5.81.12H482.83a22,22,0,0,0,9.17-1.71,28.63,28.63,0,0,0,4.81-2.83,1.66,1.66,0,0,1,.48-.29c.17-.05.32,0,.23.22" transform="translate(-192.31 -200.41)"/><path class="cls-24" d="M274.43,305.56c.36-.06.48.29.73.42,2.35,1.19,4.61,2.57,7.26,3.12a26.2,26.2,0,0,0,5.22.61q98.06,0,196.11,0a21.68,21.68,0,0,0,7.52-1.26,33.81,33.81,0,0,0,4.84-2.36c.15-.08.26-.27.48-.18a4.62,4.62,0,0,1-1.12,1.13,19,19,0,0,1-4.21,1.89,22.38,22.38,0,0,1-5.56,1.1c-2.33.19-4.68.1-7,.1h-191a22.33,22.33,0,0,1-7.82-1.29,31.93,31.93,0,0,1-4.12-1.88,6.54,6.54,0,0,1-1.33-1.4" transform="translate(-192.31 -200.41)"/><path class="cls-24" d="M496.81,208.9c-.17.11-.29,0-.42-.1a22.58,22.58,0,0,0-9-3.61,45.28,45.28,0,0,0-6.27-.35H288.78A22.34,22.34,0,0,0,276.25,208a20.19,20.19,0,0,1-1.82,1,6.05,6.05,0,0,1,1.33-1.39,29.39,29.39,0,0,1,3.74-1.71,19.77,19.77,0,0,1,5.15-1.24,49.57,49.57,0,0,1,5.45-.23H482.92a25.29,25.29,0,0,1,8.2,1.18,20.06,20.06,0,0,1,4.72,2.25,4,4,0,0,1,1,1" transform="translate(-192.31 -200.41)"/><path class="cls-74" d="M279.25,205.42c.25.12.47,0,.69-.08a24.74,24.74,0,0,1,6-1.1c1.58-.12,3.16-.09,4.73-.09q96.5,0,193,0a23.25,23.25,0,0,1,7.54,1.12.76.76,0,0,0,.64,0,9.66,9.66,0,0,1,2.52,1.38c-.16.43-.42.13-.6.05a21.83,21.83,0,0,0-4.75-1.62,25.58,25.58,0,0,0-4.36-.53c-7.54-.25-15.07-.1-22.6-.1q-86.73,0-173.46,0a26,26,0,0,0-9.76,1.66c-.55.22-1.06.51-1.62.73-.18.07-.39.26-.52-.07a9,9,0,0,1,2.52-1.4" transform="translate(-192.31 -200.41)"/><path class="cls-75" d="M276.74,206.82c.29.12.5-.08.72-.19a22.53,22.53,0,0,1,7.75-2c2.17-.2,4.35-.21,6.53-.21l191.12,0a25.64,25.64,0,0,1,9.06,1.41c.63.24,1.25.52,1.87.78.2.08.37.24.61.12a5.6,5.6,0,0,1,1.44,1.17c-.2.1-.34,0-.49-.13a21.93,21.93,0,0,0-9.14-2.92c-1.59-.13-3.18-.21-4.78-.21h-193a25.51,25.51,0,0,0-12.15,2.88c-.16.09-.32.26-.54.12a3.28,3.28,0,0,1,1-.79" transform="translate(-192.31 -200.41)"/><path class="cls-74" d="M491.28,309.48a.87.87,0,0,0-.69,0,25.19,25.19,0,0,1-7.17.9H288a24.55,24.55,0,0,1-8.25-1.24.75.75,0,0,0-.64-.06,9.37,9.37,0,0,1-2.4-1.38c.23-.37.48-.08.68,0a24,24,0,0,0,3.47,1.35,24.29,24.29,0,0,0,4,.75,62,62,0,0,0,7.47.22h191a24,24,0,0,0,10.16-2c.21-.09.48-.43.76-.06a10.82,10.82,0,0,1-3,1.52" transform="translate(-192.31 -200.41)"/><path class="cls-75" d="M494.27,308c-.22-.09-.38,0-.56.12a22.34,22.34,0,0,1-7.2,1.88,53.17,53.17,0,0,1-5.92.23l-192.4,0a23.74,23.74,0,0,1-10.9-2.33c-.17-.08-.34-.21-.56-.1a3.55,3.55,0,0,1-1-.79c.22-.14.38,0,.55.11a24.05,24.05,0,0,0,7.84,2.59,31.87,31.87,0,0,0,3.64.29q98,0,196,0A23.13,23.13,0,0,0,495,307.15c.16-.09.31-.2.5-.11a4.68,4.68,0,0,1-1.2.92" transform="translate(-192.31 -200.41)"/><path class="cls-76" d="M271.11,219.63a.81.81,0,0,1,.29.55,41.51,41.51,0,0,1,.75,6.95c0,4.79,0,9.58,0,14.37,0,4,0,7.93,0,11.9,0,3.21,0,6.41,0,9.62,0,3.59,0,7.17,0,10.76,0,3.4.06,6.8,0,10.19a53.66,53.66,0,0,1-.19,6.71c-.17,1.2-.36,2.4-.56,3.61,0,.24-.05.51-.33.64v-1.4c.09-1.65.17-3.29.2-4.94.07-5.48,0-11,0-16.45q0-22.63,0-45.27c0-2-.12-3.89-.24-5.84Z" transform="translate(-192.31 -200.41)"/><path class="cls-32" d="M500.26,294.93a.56.56,0,0,1-.27-.42c-.23-1.6-.5-3.2-.71-4.81a11,11,0,0,1,0-1.4V225.66a31.58,31.58,0,0,1,.78-5.82c0-.1,0-.19.16-.22V221c-.14,2.44-.21,4.88-.19,7.33,0,5.53,0,11,0,16.58q0,9.21,0,18.43,0,8.92,0,17.85c0,4.12,0,8.25.15,12.37a.33.33,0,0,0,0,.17Z" transform="translate(-192.31 -200.41)"/><path class="cls-13" d="M271.11,221c.17,1.42.39,2.84.5,4.26.08.94,0,1.89,0,2.84v59.64a33.72,33.72,0,0,1-.53,5.76c0-1.14,0-2.29,0-3.43V221.79c0-.25,0-.51,0-.76" transform="translate(-192.31 -200.41)"/><path class="cls-77" d="M273.6,210.18c.57-.37,1.13-.76,1.71-1.1a30.27,30.27,0,0,1,5.52-2.91,22.52,22.52,0,0,1,7.37-1.09q97.5,0,195,0a20.3,20.3,0,0,1,7.86,1.29,42,42,0,0,1,5.05,2.79,5.4,5.4,0,0,1,1,.68.4.4,0,0,0,.48.12l.86,1.4c.16.43-.06.48-.4.36a1.48,1.48,0,0,1-.45-.28,7.25,7.25,0,0,0-2.71-2.2,2.49,2.49,0,0,1-.58-.31,5.07,5.07,0,0,0-1.54-.9,12.55,12.55,0,0,0-2.48-1.51,16.74,16.74,0,0,0-4.36-.89c-3.48-.33-7-.27-10.48-.27H290.87a35.84,35.84,0,0,0-8.39.73,8.12,8.12,0,0,0-3.83,1.79,2.27,2.27,0,0,1-.48.33,34.22,34.22,0,0,0-3.56,2.53c-.26.2-.64.25-.79.58-.31.13-.61.6-.94,0a7.92,7.92,0,0,1,.72-1.18" transform="translate(-192.31 -200.41)"/><path class="cls-49" d="M497.52,304.71c-.18-.21-.27,0-.37.09-3.31,2.36-6.84,4.24-11,4.55-.88.06-1.75.15-2.63.15H288.13a20.65,20.65,0,0,1-11.92-3.44,17.45,17.45,0,0,1-2.62-1.81,3.09,3.09,0,0,1-.69-1.27.29.29,0,0,1,.22,0,28.54,28.54,0,0,0,6.75,4.59A14.06,14.06,0,0,0,285.2,309c2,.19,4,.27,6,.26H481.43a30.44,30.44,0,0,0,8-.83,9.43,9.43,0,0,0,3.8-1.85,8.73,8.73,0,0,1,1.67-1,6,6,0,0,0,2.5-1.91,1.18,1.18,0,0,1,.11-.19,1.42,1.42,0,0,1,.63-.56c.34-.12.55-.06.36.35a11.59,11.59,0,0,1-.94,1.51" transform="translate(-192.31 -200.41)"/><path class="cls-78" d="M500.26,293.76c-.16-1.74-.43-3.49-.43-5.26q0-31.62,0-63.26c0-1.4.27-2.8.41-4.21,0,1,0,2.06,0,3.09v68.95c0,.23,0,.46,0,.69" transform="translate(-192.31 -200.41)"/><path class="cls-79" d="M273,290.28V224.05a12.37,12.37,0,0,1-.28-2.35,6.73,6.73,0,0,1-.09-1.27.92.92,0,0,0-.06-.46,9.36,9.36,0,0,1-.83-5.13.13.13,0,0,0,0-.1l.24-1c.47-.14.59.19.72.5a6.11,6.11,0,0,1,.3,1.46c.09.6.33,1.14.45,1.72,0,.33,0,.66,0,1v78.78a11,11,0,0,0-.5,2,4,4,0,0,0-.11.85c.05.44-.33.67-.6.93-.09.09-.22,0-.28-.13l-.36-1.4c.23-.34.06-.72.08-1.07a13.77,13.77,0,0,1,.63-3.24,11.45,11.45,0,0,0,.51-3.28,5.7,5.7,0,0,1,.2-1.49" transform="translate(-192.31 -200.41)"/><path class="cls-80" d="M500.14,217.53c-.24-.05-.24.1-.26.27-.2,1.4-.57,2.77-.86,4.16a3.33,3.33,0,0,0-.27,1.54.59.59,0,0,1-.27.55c-.34-.17-.28-.49-.29-.77,0-1.12,0-2.25,0-3.37a26.09,26.09,0,0,1-.09-2.79,4.31,4.31,0,0,0,.42-2.21,1.53,1.53,0,0,1,.91-1.22,21.1,21.1,0,0,1,.71,3.84" transform="translate(-192.31 -200.41)"/><path class="cls-80" d="M498.48,290.75a10.11,10.11,0,0,1,.53,2,19.52,19.52,0,0,1,.76,3.63.72.72,0,0,0,.37.62,20.05,20.05,0,0,1-.72,3.83c-.54.1-.67-.32-.69-.66a11.74,11.74,0,0,1-.32-2c0-.27-.31-.34-.32-.59.05-2.1.11-4.2.11-6.3a.49.49,0,0,1,.28-.53" transform="translate(-192.31 -200.41)"/><path class="cls-79" d="M271.71,214.74c.34.32.17.77.25,1.15.17.77.19,1.56.29,2.34a2.44,2.44,0,0,0,.35,1c.56.81.31,1.7.4,2.55s0,1.51,0,2.26a1.72,1.72,0,0,1-.46-1.16,11.94,11.94,0,0,0-.43-1.86,16.75,16.75,0,0,0-.27-1.68c-.3-.85-.21-1.78-.5-2.63a8.86,8.86,0,0,1,.36-2" transform="translate(-192.31 -200.41)"/><path class="cls-79" d="M273,290.28a23,23,0,0,1-.14,4.15c-.11.65-.49,1.28-.63,1.95a16.81,16.81,0,0,0-.39,2.64c0,.2-.12.26-.26.34l-.24-1.4a11.33,11.33,0,0,0,.28-1.36c.07-1.09.51-2.1.62-3.17a10.39,10.39,0,0,0,.33-1.73,2.55,2.55,0,0,1,.43-1.42" transform="translate(-192.31 -200.41)"/><path class="cls-81" d="M272,300.76a1.54,1.54,0,0,0,.54-1,4.22,4.22,0,0,1,.65-2.33c.38,0,.36.28.41.52a19.4,19.4,0,0,0,.68,3,2.06,2.06,0,0,1-1.81,1.34Z" transform="translate(-192.31 -200.41)"/><path class="cls-82" d="M273.14,217.18c-.31-.13-.24-.46-.28-.67a7.84,7.84,0,0,1-.39-1.74,1.43,1.43,0,0,0-.53-1.07l.48-1.4c.1,0,.21-.09.29,0,.59.38,1.32.62,1.52,1.4a19.3,19.3,0,0,0-.68,3c-.05.23,0,.53-.41.53" transform="translate(-192.31 -200.41)"/><path class="cls-82" d="M499.43,213.7c-.69.81-.57,1.84-.75,2.78a.61.61,0,0,1-.32.47c-.35,0-.36-.29-.41-.54a22.3,22.3,0,0,0-.67-2.91,2,2,0,0,1,1.68-1.21Z" transform="translate(-192.31 -200.41)"/><path class="cls-82" d="M498.35,297.74a.58.58,0,0,1,.36.48c.21.89.08,1.87.72,2.64l-.48,1.41c-.05,0-.13.06-.17,0-.57-.34-1.23-.57-1.49-1.26a28.74,28.74,0,0,0,.67-2.92c0-.2.07-.44.39-.39" transform="translate(-192.31 -200.41)"/><path class="cls-56" d="M274,213.57c-.41-.55-1.15-.72-1.56-1.28l.46-.93c.38.2.55-.2.84-.26a1.93,1.93,0,0,0,1.32-.45.3.3,0,0,1,.39,0,.31.31,0,0,1,.11.42c-.43.76-.81,1.55-1.17,2.35a.28.28,0,0,1-.39.17" transform="translate(-192.31 -200.41)"/><path class="cls-83" d="M499,212.29c-.38.5-1.07.65-1.44,1.16-.27.11-.37-.08-.45-.26-.27-.64-.61-1.24-.92-1.86-.1-.2-.19-.41,0-.57s.38,0,.53.1a.74.74,0,0,0,.76.18.39.39,0,0,1,.28.18,3.58,3.58,0,0,0,.52.34c.24.11.18-.09.2-.2Z" transform="translate(-192.31 -200.41)"/><path class="cls-56" d="M272.42,302.27l1.21-.83A.74.74,0,0,0,274,301c.34-.11.41.17.5.36a10.91,10.91,0,0,0,.77,1.62.42.42,0,0,1,0,.54c-.15.17-.35.12-.54,0a1.24,1.24,0,0,0-.87,0c-.37,0-.51-.41-.82-.54h-.12a1.9,1.9,0,0,1-.48-.71" transform="translate(-192.31 -200.41)"/><path class="cls-84" d="M497.52,301.11a8,8,0,0,1,1.44,1.16l-.5.93c0-.14,0-.29-.21-.17s-.41.27-.61.4a8.65,8.65,0,0,1-.89.1c-.36.05-.56-.15-.45-.47a16.23,16.23,0,0,1,.87-1.84.23.23,0,0,1,.31-.12h0" transform="translate(-192.31 -200.41)"/><path d="M497.52,301.11l-1.06,2.23c.47-.19.87-.3,1.17.1a.25.25,0,0,1,0,.08,15.23,15.23,0,0,1-3.19,2.51,18,18,0,0,1-4.8,2.31,44.37,44.37,0,0,1-9.9.63H375.1q-21.6,0-43.18,0h-44.8a19.54,19.54,0,0,1-5.63-.74,18.59,18.59,0,0,1-4.89-2.47c-.81-.53-1.55-1.14-2.31-1.73-.22-.17-.52-.32-.48-.68a.9.9,0,0,1,1.28.06A21.5,21.5,0,0,1,274,301a12,12,0,0,1-.71-3.05,1.34,1.34,0,0,0-.12-.56q0-6.5,0-13V218.57c0-.46,0-.93,0-1.4a31.92,31.92,0,0,1,.67-3.17c.05-.15.11-.29.16-.43a21.53,21.53,0,0,1,1.35-2.78,1,1,0,0,1-1.6.31,44.12,44.12,0,0,1,4-3,14.18,14.18,0,0,1,4.5-2,16.06,16.06,0,0,1,3.37-.45c7.51-.27,15-.1,22.54-.11q29.49,0,59,0H482.7a27,27,0,0,1,6.47.57,14.65,14.65,0,0,1,4,1.71l1.31.82a34.41,34.41,0,0,1,2.9,2.19c.08.06.15.13.11.24-.47.43-.85.3-1.21-.16l1.21,2.49a11.49,11.49,0,0,1,.71,2.87l.12.63c.18,2.36.08,4.73.12,7.1q0,19.23,0,38.47,0,14.12,0,28.23c0,2.33,0,4.66-.13,7-.22,1-.36,2.07-.68,3.08,0,.11,0,.23-.15.29" transform="translate(-192.31 -200.41)"/><path class="cls-13" d="M493.2,207.87a22.4,22.4,0,0,0-3.84-1.52,16.13,16.13,0,0,0-4.78-.7c-11.36-.14-22.72,0-34.07-.05q-15.22,0-30.45,0H347.62l-43.85,0c-5.28,0-10.55,0-15.83,0a18.89,18.89,0,0,0-5.93.77,22.2,22.2,0,0,0-4.31,1.77,8,8,0,0,1,2.59-1.52,16.94,16.94,0,0,1,6.89-1.31c64.73-.28,129.45-.05,194.18-.1a28,28,0,0,1,7.95.78,12.2,12.2,0,0,1,3.89,1.88" transform="translate(-192.31 -200.41)"/><path class="cls-77" d="M497.52,211.11c-.82-.72-1.7-1.4-2.58-2-.16-.12-.35-.21-.43-.39a9.31,9.31,0,0,1,3.25,2.54Z" transform="translate(-192.31 -200.41)"/><path class="cls-13" d="M489.84,308.08a20,20,0,0,0,7.4-4.29,2.7,2.7,0,0,1,.39-.27.87.87,0,0,1-.46.71,29.63,29.63,0,0,1-6.72,4,17,17,0,0,1-5.33,1c-5.09.26-10.18.12-15.28.12q-90.49,0-181,0a22.5,22.5,0,0,1-7.38-1,26.06,26.06,0,0,1-6.18-3.42,6.49,6.49,0,0,1-2.26-2l.8.35a21,21,0,0,0,7.47,4.64,16.33,16.33,0,0,0,4.64.91c1.42.12,2.84.09,4.27.09H482.58a22.3,22.3,0,0,0,7.26-.89" transform="translate(-192.31 -200.41)"/><path class="cls-85" d="M385.61,306.82H285.84a10.57,10.57,0,0,1-10.32-7.31,8.82,8.82,0,0,1-.46-2.79V217.85a10.44,10.44,0,0,1,9.11-10,14.22,14.22,0,0,1,1.73-.1l199.49,0A10.73,10.73,0,0,1,496,216.14a7.31,7.31,0,0,1,.17,1.62c0,3.41,0,6.83,0,10.24,0,1.11-.54,1.63-1.69,1.63a6.13,6.13,0,0,0-6.27,4.57,6.29,6.29,0,0,0-.2,1.49v43.19a6.1,6.1,0,0,0,6.23,6.05c1.49,0,1.93.43,1.93,1.86,0,3.22,0,6.44,0,9.67a10.44,10.44,0,0,1-8.67,10.2,12.07,12.07,0,0,1-2.32.16h-99.6" transform="translate(-192.31 -200.41)"/><path class="cls-86" d="M489.84,308.08a8.73,8.73,0,0,1-3.1.81,41,41,0,0,1-5.08.25H287.94a18.06,18.06,0,0,1-6-.85,1.62,1.62,0,0,1-.63-.31,33.82,33.82,0,0,0,9,.81H479.65c3.41,0,6.83.14,10.19-.7" transform="translate(-192.31 -200.41)"/><path class="cls-86" d="M282,206.37a7.21,7.21,0,0,1,2.76-.7,56.84,56.84,0,0,1,6-.25l192,0a21.84,21.84,0,0,1,5.64.57,2.94,2.94,0,0,1,.95.35c-3.43-.74-6.92-.58-10.39-.58H295.15c-4.38,0-8.79-.32-13.14.59" transform="translate(-192.31 -200.41)"/><path class="cls-82" d="M494.88,252.92c-.33.43-.14.94-.14,1.39,0,2.44,0,4.88,0,7.32,0,.11.11.24.16.36a1.07,1.07,0,0,0-.16,1,.34.34,0,0,1-.14.47l0,0a1.75,1.75,0,0,1-1.33,0,.94.94,0,0,1-.53-.91c.05-2.17,0-4.33,0-6.5a34.69,34.69,0,0,0,0-3.53,2.86,2.86,0,0,1,.27-1.16c.12-.35.82-.43,1.16-.17a1.17,1.17,0,0,1,.55.86,3.82,3.82,0,0,0,.24.88" transform="translate(-192.31 -200.41)"/><path class="cls-56" d="M494.88,252.92c-.23-.33-.63-.52-.63-1s-.55-.62-1-.49c-.11,0-.14.07-.1.15.13.25,0,.38-.22.46a.34.34,0,0,0-.21.45s0,0,0,0c.15.3,0,.59,0,.86,0,.44-.08.86,0,1.27a6.37,6.37,0,0,1,0,1.85.53.53,0,0,0,.05.39c.15.2.18.36,0,.53a.2.2,0,0,0,0,.17c.34.5-.24,1.08.16,1.58.18.22-.31.35-.16.55.38.5-.28,1.1.19,1.57-.34.41,0,.83-.06,1.25s.37.77.64.71a9.29,9.29,0,0,1,1,0c-.54-.56-.19-.92.29-1.24v1.34a1,1,0,0,1-.88,1,1.06,1.06,0,0,1-1.19-.57,1.55,1.55,0,0,1-.21-.89v-11.1a1.74,1.74,0,0,1,.24-.94,1,1,0,0,1,1.16-.52,1,1,0,0,1,.87,1c0,.55,0,1.09,0,1.63" transform="translate(-192.31 -200.41)"/><path class="cls-87" d="M492,269.42a1.71,1.71,0,0,1,1.8-1.71,1.76,1.76,0,0,1,1.8,1.72v.06a1.8,1.8,0,0,1-3.6-.07" transform="translate(-192.31 -200.41)"/><path class="cls-3" d="M493.44,270a.49.49,0,0,1-.13-.71c.05-.09.13-.18.12-.26s-.19-.36.12-.46a.72.72,0,0,1,.68.1,1.24,1.24,0,0,1,.17,1.33c-.3.3-.64.4-1,0a1.32,1.32,0,0,1,.2-.12l-.2.12" transform="translate(-192.31 -200.41)"/><path class="cls-88" d="M493.44,270c0-.19,0-.39.12-.55a.44.44,0,0,1,.5-.08c.17.07.31.19.27.4a.42.42,0,0,1-.37.33.86.86,0,0,1-.52-.1Z" transform="translate(-192.31 -200.41)"/></g><g class="cls-89"><rect class="cls-90" x="188.33" y="10.07" width="105.84" height="93.84" rx="4.61"/><rect class="cls-91" x="188.33" y="10.07" width="105.84" height="93.84" rx="4.61"/></g><text class="cls-92" transform="translate(236.54 100.09)"></text><rect class="cls-93" x="194.33" y="35.03" width="27.12" height="27.12"/><g class="cls-94"><path class="cls-95" d="M386.64,235.44v27.12h14.45V252.09h-3.53v-4.28h3.53v-3.59a4.72,4.72,0,0,1,4.73-4.73h3.69v3.84h-2.64a1.52,1.52,0,0,0-1.51,1.51v3h4.08l-.56,4.28h-3.52v10.47h8.41V235.44Z" transform="translate(-192.31 -200.41)"/></g><rect class="cls-96" x="194.33" y="67.67" width="27.12" height="27.12"/><g class="cls-97"><path class="cls-93" d="M410.05,281.15c0-.2.06-.4.08-.6s0-.65,0-.77c-.24-4.19-4.59-7.53-9.92-7.53s-9.93,3.53-9.93,7.89c0,4,3.76,7.33,8.62,7.83a.55.55,0,0,1,.48.6l-.21,1.86a.56.56,0,0,0,.49.6.58.58,0,0,0,.29,0,23.68,23.68,0,0,0,8-5.79c.27-.33,1.13-1.55,1.31-1.87a6.6,6.6,0,0,0,.76-2.17Z" transform="translate(-192.31 -200.41)"/><path class="cls-98" d="M394.74,281.75v-3.33a.51.51,0,0,0-1,0v3.83a.5.5,0,0,0,.5.51h2a.51.51,0,0,0,.51-.51.5.5,0,0,0-.51-.5Z" transform="translate(-192.31 -200.41)"/><path class="cls-98" d="M397.87,282.76h-.22a.41.41,0,0,1-.4-.4v-4.05a.41.41,0,0,1,.4-.4h.22a.4.4,0,0,1,.4.4v4.05a.4.4,0,0,1-.4.4" transform="translate(-192.31 -200.41)"/><path class="cls-98" d="M402,278.42v2.34l-2.06-2.68a.5.5,0,0,0-.88.36v3.81a.51.51,0,0,0,1,0v-2.32s2.05,2.66,2.09,2.69a.48.48,0,0,0,.34.14.52.52,0,0,0,.51-.53v-3.81a.51.51,0,0,0-1,0" transform="translate(-192.31 -200.41)"/><path class="cls-98" d="M406.8,278.42a.5.5,0,0,0-.5-.51h-2a.51.51,0,0,0-.51.51h0v3.83a.51.51,0,0,0,.51.51h2a.51.51,0,0,0,.51-.51.5.5,0,0,0-.51-.5h-1.52v-.91h1.52a.51.51,0,0,0,0-1h-1.52v-.9h1.52a.51.51,0,0,0,.51-.51Z" transform="translate(-192.31 -200.41)"/></g><rect class="cls-99" x="261.05" y="67.67" width="27.12" height="27.12"/><g class="cls-100"><path class="cls-93" d="M457,288.19a11.67,11.67,0,0,0,17.92-9.87c0-.16,0-.32,0-.48a9.23,9.23,0,0,0,2-2.09,9.44,9.44,0,0,1-2.32.6h0a4.34,4.34,0,0,0,1.78-2.27,15.76,15.76,0,0,1-2,.83l-.6.18a4.1,4.1,0,0,0-7,3.73,12.31,12.31,0,0,1-8.41-4.25s-2,2.67,1.17,5.42a4.22,4.22,0,0,1-1.77-.52,3.89,3.89,0,0,0,3.24,4.06,3.68,3.68,0,0,1-1.81.08,4,4,0,0,0,3.77,2.86,7.87,7.87,0,0,1-6,1.72Z" transform="translate(-192.31 -200.41)"/></g><rect class="cls-101" x="261.05" y="35.03" width="27.12" height="27.12"/><g class="cls-102"><path class="cls-93" d="M469,252.5a.34.34,0,0,0-.29-.2.53.53,0,0,0-.4.15.36.36,0,0,0-.07.1v3.29l0,0a.61.61,0,0,0,.34.21.33.33,0,0,0,.44-.26.78.78,0,0,0,0-.16V252.8a1.09,1.09,0,0,0-.07-.3m3.7.24a.44.44,0,0,0-.41-.46.44.44,0,0,0-.46.41v.8h.87Zm.89,3.41a1.21,1.21,0,0,1-1,.84,1.56,1.56,0,0,1-.93-.1,1.26,1.26,0,0,1-.73-.93,2.48,2.48,0,0,1-.07-.61c0-.79,0-1.58,0-2.37a1.58,1.58,0,0,1,.38-1.12,1.4,1.4,0,0,1,1.21-.46,1.48,1.48,0,0,1,.42.07,1.2,1.2,0,0,1,.81.95,3.29,3.29,0,0,1,.05.54c0,.43,0,1.36,0,1.36h-1.87v1.33a.44.44,0,0,0,.87,0V255h1a5.2,5.2,0,0,1-.11,1.18Zm-3.6.2a.78.78,0,0,1-.82.58,1.09,1.09,0,0,1-.83-.37l-.09-.1v.4h-1v-7.23h1V252a.75.75,0,0,1,.1-.17,1.14,1.14,0,0,1,.56-.35.84.84,0,0,1,1,.46,1.86,1.86,0,0,1,.15.81v3a1.52,1.52,0,0,1-.08.56Zm-3.69-2.06v2.58h-1v-.59l-.08.08a1.89,1.89,0,0,1-.74.54,1,1,0,0,1-.46,0,.57.57,0,0,1-.44-.35,1.35,1.35,0,0,1-.1-.56v-4.5h1v4a1.48,1.48,0,0,0,0,.21.25.25,0,0,0,.26.22s.06,0,.08,0a1,1,0,0,0,.47-.36.12.12,0,0,0,0-.1v-4h1Zm-3.92,2.58h-1.1v-6.2h-1.13v-1h3.36v1h-1.13ZM472.63,248q-5.7-.14-11.41,0a2.41,2.41,0,0,0-2.37,2.43v5.94a2.43,2.43,0,0,0,2.38,2.42c3.79.08,7.6.08,11.4,0a2.42,2.42,0,0,0,2.37-2.42v-5.94a2.43,2.43,0,0,0-2.37-2.43ZM469,252.8a.78.78,0,0,0-.07-.3.31.31,0,0,0-.29-.2.5.5,0,0,0-.4.15.21.21,0,0,0-.06.1v3.29l0,0a.64.64,0,0,0,.34.21.32.32,0,0,0,.43-.26.88.88,0,0,0,0-.16Zm0,0a.78.78,0,0,0-.07-.3.31.31,0,0,0-.29-.2.5.5,0,0,0-.4.15.21.21,0,0,0-.06.1v3.29l0,0a.64.64,0,0,0,.34.21.32.32,0,0,0,.43-.26.88.88,0,0,0,0-.16Z" transform="translate(-192.31 -200.41)"/><path class="cls-93" d="M471.45,241.09v5.37h-1v-.58c-.11.11-.2.21-.31.3a1.24,1.24,0,0,1-.63.33.63.63,0,0,1-.81-.43,1.41,1.41,0,0,1-.07-.41v-4.58h1v4.1a.86.86,0,0,0,0,.16.22.22,0,0,0,.23.21.15.15,0,0,0,.09,0,1.07,1.07,0,0,0,.48-.36.38.38,0,0,0,0-.1v-4Z" transform="translate(-192.31 -200.41)"/><path class="cls-93" d="M463.22,242c-.22-.91-.67-2.84-.67-2.84h-1.14s.88,2.9,1.26,4.18a.32.32,0,0,1,0,.14v3h1.05v-3a.59.59,0,0,1,0-.14c.39-1.28,1.26-4.18,1.26-4.18h-1.13s-.46,1.93-.67,2.84Z" transform="translate(-192.31 -200.41)"/><path class="cls-93" d="M466.79,245.23a.41.41,0,0,1-.41.41.41.41,0,0,1-.41-.41v-2.9a.41.41,0,0,1,.41-.41.41.41,0,0,1,.41.41Zm-.41-4.27a1.42,1.42,0,0,0-1.42,1.42v2.79a1.42,1.42,0,0,0,2.84,0v-2.79a1.42,1.42,0,0,0-1.42-1.42" transform="translate(-192.31 -200.41)"/></g><rect class="cls-103" x="227.7" y="67.67" width="27.12" height="27.12"/><g class="cls-104"><path class="cls-93" d="M434.22,287.7c-3.1,0-4.64-1.16-5.12-2.62s.57-1.87.89-1.9a1.14,1.14,0,0,1,1.22.66,2.91,2.91,0,0,0,2.38,2,2.59,2.59,0,0,0,2.77-1.25c.3-.71-.24-1.7-2.53-2s-4.67-1.35-4.67-3.64,2.62-3.21,5.12-3.21a4.54,4.54,0,0,1,4.05,2c.34.68.22,1.82-.6,2s-1.31-.27-1.93-1.43-2.95-.89-3.73-.2-.56,1.66,2.65,2.29,4.4,1.78,4.4,3.6-1.81,3.72-4.91,3.72Zm8.38-4.31a8.71,8.71,0,0,0-6.88-10.22,8.41,8.41,0,0,0-1.66-.16,8.69,8.69,0,0,0-1.68.16,5,5,0,0,0-6.87,6.87,8.72,8.72,0,0,0,6.88,10.23,8.93,8.93,0,0,0,3.34,0,5,5,0,0,0,6.88-6.88Z" transform="translate(-192.31 -200.41)"/></g><polygon class="cls-105" points="227.69 62.15 227.69 34.79 255.06 34.79 255.06 58.05 255.06 62.15 227.69 62.15"/><g class="cls-106"><path class="cls-93" d="M433.45,243.49a1,1,0,0,0-1,1,1,1,0,0,0,1,1,1,1,0,1,0,0-2m-5.3,1a1,1,0,0,0-1-1,1,1,0,1,0-.06,2,1,1,0,0,0,1-1m10.16.9a8.47,8.47,0,0,0-5.68,2.3,6.73,6.73,0,0,0-2.1,5.72c-.87-.11-1.65-.22-2.44-.29a1.56,1.56,0,0,0-.83.14c-.77.43-1.5.92-2.38,1.47.16-.73.27-1.36.45-2a.75.75,0,0,0-.34-1,6.72,6.72,0,0,1-2.93-7.55,7.46,7.46,0,0,1,5.25-5.13,8.81,8.81,0,0,1,9.63,2.82,6.56,6.56,0,0,1,1.37,3.48" transform="translate(-192.31 -200.41)"/><path class="cls-93" d="M440.45,249.82a.82.82,0,0,0-.82.79.81.81,0,1,0,.82-.79m-5.14,1.64a.81.81,0,0,0,.83-.78.82.82,0,0,0-.8-.86h0a.83.83,0,0,0-.83.85.82.82,0,0,0,.82.79m8,7.71a7.4,7.4,0,0,0-2-.85,11.79,11.79,0,0,0-2.11.39,7,7,0,0,1-5.71-1.86c-3-2.82-2.61-7.14.92-9.45a7.69,7.69,0,0,1,9.93,1.48,5.64,5.64,0,0,1-.65,7.87c-.68.61-.93,1.1-.49,1.9a2,2,0,0,1,.13.52" transform="translate(-192.31 -200.41)"/></g><text class="cls-107" transform="translate(140.31 36.83)"><tspan class="cls-108">C</tspan><tspan class="cls-109" x="7.44" y="0">l</tspan><tspan class="cls-110" x="10.8" y="0">o</tspan><tspan class="cls-111" x="18.24" y="0">a</tspan><tspan class="cls-112" x="25.2" y="0">k</tspan><tspan class="cls-113" x="31.91" y="0">e</tspan><tspan x="38.87" y="0">d</tspan></text><text class="cls-107" transform="translate(146.54 50.28)"><tspan class="cls-114">Aud</tspan><tspan class="cls-115" x="23.29" y="0">i</tspan><tspan x="26.65" y="0">o</tspan></text><g class="cls-116"><rect class="cls-117" x="150.17" y="65.27" width="1.2" height="10.8"/></g><g class="cls-118"><rect class="cls-119" x="148.25" y="69.83" width="0.96" height="1.92"/></g><g class="cls-120"><rect class="cls-121" x="146.33" y="69.59" width="0.96" height="2.16"/></g><g class="cls-122"><rect class="cls-123" x="152.09" y="61.67" width="1.2" height="18"/></g><g class="cls-124"><rect class="cls-125" x="154.25" y="64.31" width="0.96" height="12.96"/></g><g class="cls-126"><rect class="cls-127" x="156.17" y="66.95" width="0.96" height="7.68"/></g><g class="cls-128"><rect class="cls-129" x="158.09" y="68.63" width="0.96" height="4.32"/></g><g class="cls-130"><rect class="cls-131" x="160.01" y="68.63" width="1.2" height="4.32"/></g><g class="cls-132"><rect class="cls-133" x="161.93" y="67.91" width="1.2" height="5.76"/></g><g class="cls-134"><rect class="cls-135" x="164.09" y="68.87" width="0.96" height="3.84"/></g><g class="cls-136"><rect class="cls-137" x="166.01" y="69.35" width="0.96" height="2.88"/></g><g class="cls-138"><rect class="cls-139" x="167.93" y="69.83" width="0.96" height="1.92"/></g><g class="cls-140"><rect class="cls-141" x="169.85" y="69.83" width="1.2" height="1.92"/></g><g class="cls-142"><rect class="cls-143" x="171.77" y="65.27" width="1.2" height="11.04"/></g><g class="cls-144"><rect class="cls-145" x="173.93" y="61.67" width="0.96" height="18"/></g><g class="cls-146"><rect class="cls-147" x="175.85" y="64.31" width="0.96" height="12.96"/></g><g class="cls-148"><rect class="cls-149" x="177.77" y="66.95" width="0.96" height="7.68"/></g><g class="cls-150"><rect class="cls-151" x="179.69" y="68.87" width="1.2" height="3.84"/></g><g class="cls-89"><path class="cls-152" d="M342.48,270.12a.6.6,0,1,1,1.2,0V272a.6.6,0,1,1-1.2,0Z" transform="translate(-192.31 -200.41)"/></g><g class="cls-89"><path class="cls-152" d="M340.56,271.2a.24.24,0,0,1,.24-.24h.48a.24.24,0,0,1,0,.48h-.48a.24.24,0,0,1-.24-.24" transform="translate(-192.31 -200.41)"/></g><g class="cls-89"><path class="cls-152" d="M338.64,271.2a.24.24,0,0,1,.24-.24h.48a.24.24,0,0,1,0,.48h-.48a.24.24,0,0,1-.24-.24" transform="translate(-192.31 -200.41)"/></g><g class="cls-89"><path class="cls-152" d="M344.4,269.16a.6.6,0,0,1,1.2,0v4.08a.6.6,0,0,1-1.2,0Z" transform="translate(-192.31 -200.41)"/></g><g class="cls-89"><path class="cls-152" d="M346.56,269.76a.48.48,0,0,1,.48-.48.49.49,0,0,1,.48.48v2.88a.48.48,0,0,1-.48.48.47.47,0,0,1-.48-.48Z" transform="translate(-192.31 -200.41)"/></g><g class="cls-89"><path class="cls-152" d="M348.48,270.48A.49.49,0,0,1,349,270a.48.48,0,0,1,.48.48v1.44a.47.47,0,0,1-.48.48.48.48,0,0,1-.48-.48Z" transform="translate(-192.31 -200.41)"/></g><g class="cls-89"><path class="cls-152" d="M350.4,271a.48.48,0,0,1,.48-.48.49.49,0,0,1,.48.48v.24a.49.49,0,0,1-.48.48.48.48,0,0,1-.48-.48Z" transform="translate(-192.31 -200.41)"/></g><g class="cls-89"><path class="cls-152" d="M352.32,271.08a.6.6,0,1,1,.6.6.6.6,0,0,1-.6-.6" transform="translate(-192.31 -200.41)"/></g><g class="cls-89"><path class="cls-152" d="M354.24,270.84a.6.6,0,1,1,1.2,0v.48a.6.6,0,1,1-1.2,0Z" transform="translate(-192.31 -200.41)"/></g><g class="cls-89"><path class="cls-152" d="M356.4,271.2a.48.48,0,0,1,.48-.48.49.49,0,0,1,.48.48.48.48,0,0,1-.48.48.47.47,0,0,1-.48-.48" transform="translate(-192.31 -200.41)"/></g><g class="cls-89"><path class="cls-152" d="M358.32,271.2a.49.49,0,0,1,.48-.48.48.48,0,0,1,.48.48.47.47,0,0,1-.48.48.48.48,0,0,1-.48-.48" transform="translate(-192.31 -200.41)"/></g><g class="cls-89"><path class="cls-152" d="M360.24,271.2a.24.24,0,0,1,.24-.24H361a.24.24,0,0,1,0,.48h-.48a.24.24,0,0,1-.24-.24" transform="translate(-192.31 -200.41)"/></g><g class="cls-89"><path class="cls-152" d="M362.16,271.2a.24.24,0,0,1,.24-.24h.72a.24.24,0,0,1,0,.48h-.72a.24.24,0,0,1-.24-.24" transform="translate(-192.31 -200.41)"/></g><g class="cls-89"><path class="cls-152" d="M364.08,270.12a.6.6,0,0,1,1.2,0v2.16a.6.6,0,0,1-1.2,0Z" transform="translate(-192.31 -200.41)"/></g><g class="cls-89"><path class="cls-152" d="M366.24,269a.48.48,0,0,1,.48-.48.49.49,0,0,1,.48.48v4.32a.48.48,0,0,1-.48.48.47.47,0,0,1-.48-.48Z" transform="translate(-192.31 -200.41)"/></g><g class="cls-89"><path class="cls-152" d="M368.16,269.76a.48.48,0,0,1,1,0v2.88a.48.48,0,0,1-1,0Z" transform="translate(-192.31 -200.41)"/></g><g class="cls-89"><path class="cls-152" d="M370.08,270.48a.48.48,0,0,1,.48-.48.49.49,0,0,1,.48.48v1.44a.48.48,0,0,1-.48.48.47.47,0,0,1-.48-.48Z" transform="translate(-192.31 -200.41)"/></g><g class="cls-89"><path class="cls-152" d="M372,271.2a.48.48,0,0,1,.48-.48h.24a.49.49,0,0,1,.48.48.48.48,0,0,1-.48.48h-.24a.47.47,0,0,1-.48-.48" transform="translate(-192.31 -200.41)"/></g><g class="cls-153"><path d="M221.34,219.31h-.79c-20,.51-30.11,19.42-20.63,35.22a28.46,28.46,0,0,1,2.23,24.88,2.41,2.41,0,0,0,.93,3.28l.1.06a33.23,33.23,0,0,0,18.28,5.95c5.27,0,5.27,0,5.33-5.11a7.61,7.61,0,0,1,0-1.35,2.38,2.38,0,0,0-1.69-2.91l-.22,0a15.61,15.61,0,0,1-6.47-4.15c-.54-.57-1.27-1.26-.48-2.07s1.33,0,1.84.43c4.78,4.24,10.65,5.13,16.77,4.65,6.37-.47,6.28-.57,6.63-7.06a2.36,2.36,0,0,0-1.8-2.79l-.13,0a7.79,7.79,0,0,1-4.91-4.62,3.4,3.4,0,0,1,1.43-4.59,3.32,3.32,0,0,1,1.63-.39c1.15-.11,2.31-.1,3.46-.16,1.42-.1,2.15-.72,1.82-2.25-.56-2.63,0-4.39,2.93-5.33,2.18-.68,2.16-1.8.3-3a14,14,0,0,1-6.79-11.16,21,21,0,0,0-2.78-9.8c-4-6.22-10.25-7.53-17-7.69m18.75,43.44c.59,1.59,2,2.12,3.44,2.6,3.19,1,3.62,1.72,3.09,5a14.44,14.44,0,0,0,0,2.94,6.38,6.38,0,0,1-5.17,7.39l-.45.06a23.51,23.51,0,0,1-9.81.09c-1.82-.4-2.17.35-2,1.95s0,3.19.19,4.78c.27,2.11-.75,2.92-2.6,3.19a33.88,33.88,0,0,1-27.65-7,2.58,2.58,0,0,1-.85-3.5,25.52,25.52,0,0,0-1.77-23.92C186,239,195.9,217.38,218,215.22a31.85,31.85,0,0,1,12.17,1,19.62,19.62,0,0,1,14.67,17.83c.38,4.78,1.74,8.58,6.14,11.16,3.53,2.09,3.18,6.18-.43,8.46a3.6,3.6,0,0,0-2,3.82c.2,3.51-.18,3.85-3.75,4.45-.79.15-1.59.2-2.39.36s-1.57-.21-2.31.43" transform="translate(-192.31 -200.41)"/><path d="M259,269c-1.34-.48-3.47-.21-3.41-2.68,0-1.82,1.6-1.82,2.76-1.6,1.59.24,3.68.1,3.74,2.51.07,2-1.59,1.69-3.09,1.77" transform="translate(-192.31 -200.41)"/><path d="M259.59,257.61a4.53,4.53,0,0,1-3.66,3.45,1.6,1.6,0,0,1-2.12-1.79c.13-2,1.75-3,3.55-3.46,1.37-.37,1.85.7,2.23,1.8" transform="translate(-192.31 -200.41)"/><path d="M254.05,276.72a4.54,4.54,0,0,1-3-3.94c-.24-1.36.78-1.93,1.88-2.07s3.18,2.52,3.1,4.13c-.06,1.22-1,1.53-1.94,1.88" transform="translate(-192.31 -200.41)"/></g><text class="cls-154" transform="translate(370.03 120.28)"><tspan class="cls-155">S</tspan><tspan x="7.21" y="0">er</tspan><tspan class="cls-156" x="20.4" y="0">v</tspan><tspan class="cls-157" x="27.6" y="0">i</tspan><tspan class="cls-158" x="31.21" y="0">c</tspan><tspan x="37.91" y="0">e</tspan></text><text class="cls-154" transform="translate(365.7 135.64)"><tspan class="cls-159">P</tspan><tspan x="8.39" y="0">r</tspan><tspan class="cls-160" x="13.9" y="0">o</tspan><tspan class="cls-161" x="22.05" y="0">v</tspan><tspan class="cls-157" x="29.24" y="0">i</tspan><tspan class="cls-162" x="32.85" y="0">d</tspan><tspan x="41.02" y="0">er</tspan></text><text class="cls-154" transform="translate(473.32 120.28)"><tspan class="cls-155">S</tspan><tspan class="cls-163" x="7.21" y="0">p</tspan><tspan x="15.36" y="0">e</tspan><tspan class="cls-163" x="23.04" y="0">a</tspan><tspan class="cls-160" x="31.2" y="0">k</tspan><tspan class="cls-164" x="38.41" y="0">er</tspan></text><text class="cls-154" transform="translate(468.76 135.64)">I</text><text class="cls-154" transform="translate(472.84 135.64)"><tspan class="cls-163">nf</tspan><tspan x="12.95" y="0">ere</tspan><tspan class="cls-163" x="33.82" y="0">n</tspan><tspan class="cls-161" x="41.97" y="0">c</tspan><tspan x="48.68" y="0">e</tspan></text><g class="cls-165"><path class="cls-166" d="M602.57,242.84a13,13,0,0,0-12.52-10.56,12.82,12.82,0,0,0-11.57,7.62,8.66,8.66,0,0,0-3.34-.67,9.62,9.62,0,0,0-9.4,8.73,9.85,9.85,0,0,0,.17,19.53v-2.23a7.4,7.4,0,0,1-6.51-7.51,7.48,7.48,0,0,1,7.4-7.62h1.11V249a7.4,7.4,0,0,1,7.23-7.56,6.59,6.59,0,0,1,3.39.89l1.12.61.44-1.22A10.51,10.51,0,0,1,600.56,244l.12.89.89.05a10.27,10.27,0,0,1-.67,20.47h-.56v2.17h.56a12.45,12.45,0,0,0,1.67-24.7" transform="translate(-192.31 -200.41)"/><path class="cls-166" d="M591.94,274.11a1.78,1.78,0,1,1,1.78-1.78,1.79,1.79,0,0,1-1.78,1.78m-14.24.11h-1.45v-3.84h1.45Zm-3.23,0H573v-3.84h1.44Zm21.09-5.56H571.41a.87.87,0,0,0-.89.89v5.61a.88.88,0,0,0,.89.89h24.15a.88.88,0,0,0,.89-.89v-5.67a.86.86,0,0,0-.89-.83" transform="translate(-192.31 -200.41)"/><path class="cls-166" d="M591.94,265.93a1.78,1.78,0,1,1,1.78-1.78,1.79,1.79,0,0,1-1.78,1.78M577.7,266h-1.45V262.2h1.45Zm-3.23,0H573V262.2h1.44Zm21.09-5.56H571.41a.88.88,0,0,0-.89.89V267a.88.88,0,0,0,.89.89h24.15a.88.88,0,0,0,.89-.89v-5.68a.87.87,0,0,0-.89-.83" transform="translate(-192.31 -200.41)"/><path class="cls-166" d="M591.94,257.75a1.78,1.78,0,1,1,1.78-1.78,1.79,1.79,0,0,1-1.78,1.78m-14.24.11h-1.45V254h1.45Zm-3.23,0H573V254h1.44Zm21.09-5.56H571.41a.88.88,0,0,0-.89.89v5.62a.88.88,0,0,0,.89.89h24.15a.88.88,0,0,0,.89-.89v-5.67a.87.87,0,0,0-.89-.84" transform="translate(-192.31 -200.41)"/></g><line class="cls-167" x1="424.97" y1="53.75" x2="494.92" y2="54.32"/><polygon class="cls-168" points="493.94 51.31 499.92 54.36 493.9 57.31 493.94 51.31"/><text class="cls-169" transform="translate(510.76 48.71)"><tspan class="cls-170">P</tspan><tspan class="cls-171" x="10.56" y="0">s</tspan><tspan class="cls-172" x="18.49" y="0">e</tspan><tspan class="cls-173" x="28.56" y="0">ud</tspan><tspan x="50.13" y="0">o</tspan></text><text class="cls-169" transform="translate(508.84 67.91)"><tspan class="cls-171">I</tspan><tspan class="cls-173" x="5.29" y="0">d</tspan><tspan class="cls-172" x="16.08" y="0">e</tspan><tspan class="cls-173" x="26.15" y="0">n</tspan><tspan class="cls-174" x="36.94" y="0">ti</tspan><tspan class="cls-172" x="48.52" y="0">t</tspan><tspan x="55.46" y="0">y</tspan></text><text class="cls-175" transform="translate(438.02 28.78)"><tspan class="cls-176">S</tspan><tspan class="cls-177" x="6.48" y="0">p</tspan><tspan class="cls-110" x="13.92" y="0">e</tspan><tspan class="cls-178" x="20.89" y="0">a</tspan><tspan class="cls-179" x="27.84" y="0">k</tspan><tspan class="cls-110" x="34.55" y="0">e</tspan><tspan x="41.52" y="0">r</tspan></text><text class="cls-175" transform="translate(426.99 42.22)"><tspan class="cls-178">R</tspan><tspan class="cls-110" x="7.92" y="0">e</tspan><tspan class="cls-109" x="14.89" y="0">c</tspan><tspan class="cls-110" x="20.66" y="0">o</tspan><tspan class="cls-180" x="28.1" y="0">g</tspan><tspan class="cls-177" x="34.81" y="0">n</tspan><tspan class="cls-109" x="42.25" y="0">iti</tspan><tspan class="cls-110" x="53.71" y="0">o</tspan><tspan x="61.15" y="0">n</tspan></text><g class="cls-89"><path class="cls-181" d="M737.76,281.52c0,3.05-4.75,5.52-10.62,5.52H699.78c-5.87,0-10.62,2.47-10.62,5.52,0-3.05-4.76-5.52-10.62-5.52H651.18c-5.86,0-10.62-2.47-10.62-5.52" transform="translate(-192.31 -200.41)"/></g><line class="cls-167" x1="312.17" y1="51.59" x2="353.67" y2="51.59"/><polygon class="cls-168" points="352.68 48.59 358.68 51.59 352.68 54.59 352.68 48.59"/><line class="cls-167" x1="358.67" y1="57.11" x2="317.17" y2="57.11"/><polygon class="cls-168" points="318.18 54.11 312.18 57.11 318.18 60.11 318.18 54.11"/><text class="cls-182" transform="translate(207.17 25.23)"><tspan class="cls-114">A</tspan><tspan class="cls-111" x="8.41" y="0">pp</tspan><tspan class="cls-115" x="23.27" y="0">li</tspan><tspan class="cls-112" x="30" y="0">c</tspan><tspan class="cls-111" x="35.75" y="0">a</tspan><tspan class="cls-109" x="43.18" y="0">ti</tspan><tspan class="cls-111" x="51.28" y="0">on</tspan><tspan x="66.13" y="0">s</tspan></text><g class="cls-89"><rect class="cls-183" x="84.41" y="10.07" width="30.72" height="93.84" rx="5.12"/><rect class="cls-91" x="84.41" y="10.07" width="30.72" height="93.84" rx="5.12"/></g><text class="cls-184" transform="translate(103.07 27.58) rotate(90)">O<tspan class="cls-185" x="9.35" y="0">p</tspan><tspan class="cls-186" x="16.78" y="0">e</tspan><tspan class="cls-187" x="23.5" y="0">r</tspan><tspan class="cls-178" x="28.31" y="0">a</tspan><tspan class="cls-109" x="35.74" y="0">ti</tspan><tspan class="cls-111" x="43.83" y="0">n</tspan><tspan class="cls-188" x="51.26" y="0">g</tspan></text><text class="cls-182" transform="translate(89.62 36.7) rotate(90)"><tspan class="cls-189">S</tspan><tspan class="cls-109" x="6.24" y="0">y</tspan><tspan class="cls-190" x="12.73" y="0">s</tspan><tspan class="cls-191" x="18.02" y="0">t</tspan><tspan class="cls-192" x="22.6" y="0">e</tspan><tspan x="29.32" y="0">m</tspan></text><line class="cls-167" x1="139.61" y1="56.87" x2="183.28" y2="56.87"/><polygon class="cls-168" points="182.28 53.87 188.28 56.87 182.28 59.87 182.28 53.87"/><text class="cls-175" transform="translate(315.24 28.78)"><tspan class="cls-193">C</tspan><tspan class="cls-109" x="7.44" y="0">l</tspan><tspan class="cls-110" x="10.8" y="0">o</tspan><tspan class="cls-178" x="18.24" y="0">a</tspan><tspan class="cls-179" x="25.2" y="0">k</tspan><tspan class="cls-110" x="31.91" y="0">e</tspan><tspan x="38.87" y="0">d</tspan></text><text class="cls-175" transform="translate(321.48 42.22)"><tspan class="cls-177">Aud</tspan><tspan class="cls-109" x="23.29" y="0">i</tspan><tspan x="26.65" y="0">o</tspan></text><text class="cls-175" transform="translate(325.92 75.76)"><tspan class="cls-194">T</tspan><tspan class="cls-110" x="6.95" y="0">e</tspan><tspan class="cls-185" x="13.91" y="0">x</tspan><tspan x="20.39" y="0">t</tspan></text><text class="cls-154" transform="translate(182.31 135.64)"><tspan class="cls-195">P</tspan><tspan class="cls-163" x="8.39" y="0">h</tspan><tspan class="cls-196" x="16.54" y="0">o</tspan><tspan class="cls-163" x="24.71" y="0">n</tspan><tspan x="32.87" y="0">e</tspan></text><text class="cls-154" transform="translate(11.28 135.64)">U<tspan class="cls-197" x="10.32" y="0">s</tspan><tspan x="16.56" y="0">er</tspan></text><g class="cls-89"><rect class="cls-183" x="116.57" y="10.07" width="21.84" height="93.84" rx="3.64"/><rect class="cls-198" x="116.57" y="10.07" width="21.84" height="93.84" rx="3.64"/></g><text class="cls-199" transform="translate(123.17 28.3) rotate(90)">V</text><text class="cls-199" transform="translate(123.16 38.87) rotate(90)">-</text><text class="cls-199" transform="translate(123.16 44.39) rotate(90)"><tspan class="cls-200">C</tspan><tspan class="cls-201" x="9.6" y="0">l</tspan><tspan class="cls-202" x="13.93" y="0">o</tspan><tspan x="23.54" y="0">ak</tspan></text><text class="cls-203" transform="translate(100.59 135.64)">V</text><text class="cls-203" transform="translate(110.19 135.64)">-</text><text class="cls-203" transform="translate(115.23 135.64)"><tspan class="cls-204">C</tspan><tspan class="cls-160" x="8.39" y="0">l</tspan><tspan class="cls-205" x="12.24" y="0">oa</tspan><tspan x="29.05" y="0">k</tspan></text></g></g></svg>